<svg xmlns="http://www.w3.org/2000/svg" width="256" height="256" id="wrench">
  <path d="M157.026 76.033c-7.543-22.254 8.878-47.332 32.67-47.411 3.058-.01 10.314.918 12.752 2.557 3.436 2.308-3.122 6.762-4.643 8.074-2.777 2.395-12.337 9.563-14.127 11.951 1.312 5.671.88 11.895 3.216 17.327 5.135 1.196 10.19 2.049 15.19 3.857 1.716-1.296 3.233-3.26 4.724-4.826 2.672-2.803 13.028-13.798 16.093-14.946 6.213 1.893 3.461 19.653 1.771 24.137-6.516 17.283-26.94 28.359-44.525 21.597-4.61 3.835-8.66 8.337-12.954 12.516l-13.032 12.904c-2.878 2.875-5.781 5.66-8.493 8.697l27.562 27.284c1.56 1.55 3.238 3.048 4.594 4.78 24.87-13.735 54.534 8.542 48.78 36.92-.404 1.995-1.01 7.075-4.172 5.337-5.365-2.95-20.697-21.475-12.613-23.14 1.273-.262 1.473 1.244 1.751 2.126 1.984 6.274 5.506 12.134 11.052 15.857-.021-1.564.221-3.12.371-4.674 1.255-12.99-4.937-23.325-16.489-29.56-.691.744-.984.766-1.867.307-.07.587.642 1.334.987 1.79l.118.003.233-.336.079.036c.394 3.491-3.628 6.918-.546 4.119l-.177.116.147.055c-2.05 2.378-3.276 2.544-6.134 3.773-4.593 1.976-9.974 7.36-13.89 10.82.667.282.998.605 1.44 1.183.051 3.632-1.672 10.112-2.193 14.209 1.275 1.117 2.924 1.905 4.295 2.923 4.691 3.487 15.374 11.98 17.508 16.047-.883 2.562-3.124 2.988-5.485 3.547-24.361 5.771-46.186-17.65-38.877-41.95.694-2.308 1.704-4.456 2.544-6.705-6.354-6.31-13.045-12.738-19.494-18.967-4.18-4.038-8.547-7.846-12.193-12.392 1.216 8.044-2.123 10.419-7.091 15.835l-46.305 51.266c-1.505 1.64-3 3.342-4.67 4.818-8.147 7.202-20.394 7.94-29.741 2.605-14.245-8.128-18.632-28.915-6.556-40.935 2.964-2.95 6.939-6.05 10.14-8.941L90.828 132.7c2.885-2.61 5.563-5.628 8.837-7.77 3.342-2.185 6.136-1.41 9.507-2.35l.172-.05c-1.643-2.459-4.186-4.413-6.25-6.524-7.623-7.794-16.873-15.89-23.918-24.023-12.894 6.08-26.93 5.965-38.13-3.944-16.303-14.424-12.508-39.878-6.49-35.138 4.997 3.938 14.299 14.337 18.51 19.1 5.141-1.286 10.172-2.974 15.366-4.07 1.211-5.632 2.98-11.118 4.238-16.728-2.384-2.134-19.259-16.621-19.744-18.066-.663-1.973 1.23-2.816 2.809-3.246 28.42-7.759 51.686 22.854 36.767 48.625 2.419 2.819 5.21 5.355 7.826 7.991l15.719 15.73c1.666 1.662 5.63 5.041 6.729 6.747 3.975-3.742 7.7-7.728 11.617-11.528 7.517-7.291 15.024-14.276 22.634-21.424m-49.572 51.15c-6.52.492-7.931 2.727-12.46 7.048-2.679 2.557-5.341 5.137-8.086 7.623l-10.17 9.029-23.71 21.734c-3.375 3.131-9.539 7.581-12.201 10.683-11.957 13.93-.98 36.531 17.31 36.622 12.592-.295 17.173-8.533 24.704-16.779l29.147-32.257c3.351-3.761 6.76-7.49 10.212-11.158 7.448-7.91 11.037-8.642 2.664-17.084-2.207-2.226-14.808-15.764-17.41-15.462m35.485 8.134c-2.315 2.125-5.724 5.088-7.468 7.69 2.54 3.345 7.292 7.27 10.409 10.297 7.624 7.403 15.328 14.796 22.697 22.45.108-.036 2.72-4.071 3.588-4.892 1.441-1.363 2.976-1.365 4.643-2.122l.183-.085c-1.927-.768-3.324-2.727-4.766-4.145zM88.601 81.094c-2.333 3.738-3.93 4.674-6.884 7.37 2.183 2.785 4.81 5.282 7.32 7.774l17.481 17.202c2.014 2.026 3.998 4.094 6.16 5.965 1.38-2.201 5.051-5.529 7.062-7.498-2.379-2.294-4.62-4.774-6.946-7.129L97.567 89.619c-2.93-2.88-5.822-5.878-8.966-8.525M58.478 33.349c.625.54 1.256 1.073 1.874 1.62.694-.66.172-1.505.847-2.09-.926.075-1.815.273-2.721.47"></path>
  <path fill="#E4E3E3" d="M176.99 168.655c2.15.272 4.467-1.496 6.434-2.224 7.732-2.864 15.578-2.441 23.08.965-.691.745-.984.767-1.867.308-.07.587.642 1.334.987 1.79l.118.003.233-.336.079.036c.394 3.491-3.628 6.918-.546 4.119l-.177.116.147.055c-2.05 2.378-3.276 2.544-6.134 3.773-4.593 1.976-9.974 7.36-13.89 10.82-3.392.295-2.95 4.346-3.416 6.847-.379 2.028-2.81 10.237-1.136 11.736.686.615 3.473 1.349 4.706 2.115 4.258 2.642 12.403 9.508 15.367 13.01-24.405 6.537-44.136-19.118-33.446-41.152.774-1.596 2.187-3.128 1.048-4.882.108-.036 2.72-4.071 3.588-4.892 1.441-1.363 2.976-1.365 4.643-2.122z"></path>
  <path fill="#EBB7F1" d="M61.199 32.878c1.264-.148 2.653-.067 3.927-.008 20.876.965 34.4 22.724 24.966 41.312-1.065 2.097-3.52 4.554-1.491 6.912-2.333 3.738-3.93 4.674-6.884 7.37-.407-.362-.872-.66-1.317-.97-1.964.309-3.726 1.339-5.534 2.112-18.135 7.752-39.433-4.104-41.163-23.628-.227-2.555.11-5.102-.077-7.65l-.018-.237c2.802 2.08 5.13 4.67 7.518 7.195l6.568 6.902c1.317 1.384 2.53 3.097 4.081 4.222 1.717.03 18.661-4.872 19.739-5.512.654-1.334.955-2.904 1.326-4.338l1.552-5.992c.612-2.302 3.808-10.204 1.983-11.83-5.137-4.576-10.768-9.308-16.023-13.769.694-.66.172-1.505.847-2.09"></path>
  <path fill="#E4E3E3" d="M188.073 32.676c3.229-.429 6.797.446 9.928 1.179-2.762 2.61-16.965 13.537-17.854 15.656-.726 3.63 2.001 16.463 2.837 20.225-7.242 5.958-13.85 13.385-20.504 19.996l-40.256 40.12c-.696.672-1.36 1.378-2.031 2.075-2.6-2.255-4.898-4.849-7.515-7.119 3.587-4.499 9.646-9.893 13.813-13.947l24.133-23.676c2.014-1.976 9.413-8.215 10.072-10.439.018-3.13-1.181-6.318-1.47-9.529-1.58-17.572 11.36-33.039 28.847-34.541M221.833 58.091c.831 1.091.854 8.001.769 9.772-.894 18.572-18.943 30.016-36.62 28.098-8.126-.881-5.525-3.88-11.923 2.544l-30.338 30.123c-4.415 4.46-8.637 9.096-13.198 13.411-1.527-1.3-2.951-2.735-4.399-4.122-1.173-1.16-2.392-2.317-3.35-3.667l44.687-44.111c6.1-5.923 11.954-12.424 18.597-17.751 5.365 1.073 12.32 3.238 17.641 3.645 4.428-2.778 13.461-13.709 18.134-17.942"></path>
  <path fill="#6948E0" d="M107.454 127.182c2.602-.302 15.203 13.236 17.41 15.462 8.373 8.442 4.784 9.174-2.664 17.084a550 550 0 0 0-10.212 11.158l-29.147 32.257c-7.531 8.246-12.112 16.484-24.704 16.779-18.29-.09-29.267-22.691-17.31-36.622 2.662-3.102 8.826-7.552 12.2-10.683l23.711-21.734 10.17-9.029c2.745-2.486 5.407-5.066 8.086-7.623 4.529-4.321 5.94-6.556 12.46-7.049M57 185.046c-15.965 1.906-15.295 25.132 2.405 24.066 16.71-2.144 13.583-25.048-2.405-24.066"></path>
  <path d="M106.36 141.552c4.098.216 8.78 5.498 5.996 8.147-3.053 2.905-4.457-5.829-8.61-2.773-3.075 2.262-5.696 5.27-8.479 7.88-4.69 4.398-9.6 8.654-14.057 13.284-1.254 1.393-2.481 3.036-4.19 3.875-6.074-2.12.159-5.97 2.598-8.23l8.524-7.943c4.565-4.314 12.276-13.788 18.218-14.24M57.001 185.046c15.988-.982 19.114 21.922 2.405 24.066-17.7 1.066-18.37-22.16-2.405-24.066m1.136 4.217c-12.159 1.015-10.001 16.089 0 15.773 11.723-.774 9.657-16.604.121-15.784z"></path>
</svg>
