<svg xmlns="http://www.w3.org/2000/svg" viewBox="0 0 32 32" id="wrench">
  <path fill="#d8d9dc" d="M23.491,20.335,11.665,8.509A5.8,5.8,0,0,0,4.555.768L8.193,4.406,4.406,8.193.768,4.555a5.8,5.8,0,0,0,7.741,7.109L20.335,23.491a5.8,5.8,0,0,0,7.109,7.741l-3.638-3.638,3.787-3.787,3.638,3.638a5.8,5.8,0,0,0-7.741-7.109Z"></path>
  <path d="M30.119,21.282A6.231,6.231,0,0,0,23.6,19.815L12.186,8.4A6.246,6.246,0,0,0,4.422.342a.446.446,0,0,0-.182.741L7.562,4.406,4.405,7.562,1.084,4.24a.446.446,0,0,0-.741.182A6.246,6.246,0,0,0,8.4,12.185L19.814,23.6a6.245,6.245,0,0,0,7.764,8.056.446.446,0,0,0,.182-.741l-3.321-3.322,3.156-3.156,3.321,3.322a.451.451,0,0,0,.422.118.447.447,0,0,0,.319-.3A6.231,6.231,0,0,0,30.119,21.282Zm.864,5.283L27.91,23.492a.446.446,0,0,0-.631,0l-3.787,3.787a.445.445,0,0,0,0,.631l3.073,3.074a5.353,5.353,0,0,1-5.817-7.323.445.445,0,0,0-.1-.485L8.824,11.349a.445.445,0,0,0-.315-.131.438.438,0,0,0-.17.034A5.353,5.353,0,0,1,1.017,5.435L4.09,8.508a.446.446,0,0,0,.631,0L8.508,4.721a.445.445,0,0,0,0-.631L5.435,1.016a5.353,5.353,0,0,1,5.817,7.323.445.445,0,0,0,.1.485L23.176,20.651a.444.444,0,0,0,.485.1,5.353,5.353,0,0,1,7.322,5.817Z"></path>
  <path fill="#d8d9dc" d="M11.665,23.491,23.491,11.665a5.8,5.8,0,0,0,7.741-7.109L27.594,8.193,23.807,4.406,27.445.768a5.8,5.8,0,0,0-7.109,7.741L8.509,20.335A5.8,5.8,0,0,0,.768,27.445l3.638-3.638,3.787,3.787L4.555,31.232a5.8,5.8,0,0,0,7.109-7.741Z"></path>
  <path d="M31.657,4.421a.446.446,0,0,0-.741-.182L27.595,7.562,24.438,4.406,27.76,1.083a.446.446,0,0,0-.182-.741A6.247,6.247,0,0,0,19.814,8.4L8.4,19.815A6.246,6.246,0,0,0,.343,27.579a.447.447,0,0,0,.319.3.452.452,0,0,0,.422-.118l3.321-3.322,3.156,3.156L4.24,30.917a.446.446,0,0,0,.182.741A6.247,6.247,0,0,0,12.186,23.6L23.6,12.185a6.246,6.246,0,0,0,8.056-7.764Zm-2.169,5.666a5.345,5.345,0,0,1-5.827,1.165.441.441,0,0,0-.485.1L11.35,23.176a.445.445,0,0,0-.1.485,5.354,5.354,0,0,1-5.817,7.323L8.508,27.91a.445.445,0,0,0,0-.631L4.721,23.492a.458.458,0,0,0-.631,0L1.017,26.565a5.353,5.353,0,0,1,7.322-5.817.445.445,0,0,0,.485-.1L20.65,8.824a.445.445,0,0,0,.1-.485,5.354,5.354,0,0,1,5.817-7.323L23.492,4.09a.445.445,0,0,0,0,.631l3.787,3.787a.458.458,0,0,0,.631,0l3.073-3.074A5.337,5.337,0,0,1,29.488,10.087Z"></path>
</svg>
