<svg xmlns="http://www.w3.org/2000/svg" viewBox="0 0 512 512" id="wrench">
  <path fill="#f0f5ff" d="M11.44,348.63C-2,312,1.58,267.28,26.34,237.73c18.1-21.6,46-34.36,58.46-59.94,10.47-21.54,7.47-47.18,11-71,6.05-40.36,32.9-76.67,68.83-93.09S244.44,1.27,277.06,24C308.19,45.6,330.19,83,366.34,93.11c16.22,4.52,33.42,2.82,50.05,5.23,37.54,5.46,71.15,33.51,84.87,70.3s7.21,80.85-16.12,112c-16.82,22.42-41.2,38-56.77,61.36-20,30-23,69.07-39.82,101.18-64.15,122.61-225.44,44.8-307.56-11C51,411.83,24.42,383.93,11.44,348.63Z"></path>
  <path fill="#ffdee6" d="M89.29,153.36A66.18,66.18,0,0,1,79,163a58.58,58.58,0,0,1-11.18,6.42v6.11h59.73v-22.2Z"></path>
  <path fill="#f9edf0" d="M89.29 153.36a56.2 56.2 0 01-4.56 4.82h42.85v-4.82zM67.85 169.45v6.12h5.27v-8.75C71.43 167.73 69.68 168.57 67.85 169.45z"></path>
  <path fill="#cfd0e2" d="M127.58,178.52H67.85a3,3,0,0,1-3-3v-6.11a2.94,2.94,0,0,1,1.68-2.66,56.13,56.13,0,0,0,10.65-6.1A63.17,63.17,0,0,0,87,151.46a3,3,0,0,1,2.26-1.06h38.29a3,3,0,0,1,3,3v22.2A3,3,0,0,1,127.58,178.52Zm-56.77-5.91h53.81V156.32h-34a69.92,69.92,0,0,1-9.81,9,54.73,54.73,0,0,1-10,5.95Z"></path>
  <rect width="29.39" height="22.2" x="98.19" y="175.57" fill="#ffdee6"></rect>
  <polygon fill="#f9edf0" points="127.58 175.56 98.19 175.56 98.19 197.77 103.47 197.77 103.47 180.38 127.58 180.38 127.58 175.56"></polygon>
  <path fill="#cfd0e2" d="M127.58,200.73H98.19a3,3,0,0,1-3-3v-22.2a3,3,0,0,1,3-3h29.39a3,3,0,0,1,3,3v22.2A3,3,0,0,1,127.58,200.73Zm-26.43-5.92h23.47V178.52H101.15Z"></path>
  <rect width="30.34" height="22.2" x="67.85" y="175.57" fill="#ffdee6" transform="rotate(180 83.02 186.67)"></rect>
  <polygon fill="#f9edf0" points="67.85 197.77 67.85 175.57 98.19 175.57 98.19 180.38 72.1 180.38 72.1 197.77 67.85 197.77"></polygon>
  <path fill="#cfd0e2" d="M98.19,200.73H67.85a3,3,0,0,1-3-3v-22.2a3,3,0,0,1,3-3H98.19a3,3,0,0,1,3,3v22.2A3,3,0,0,1,98.19,200.73Zm-27.38-5.92H95.23V178.52H70.81Z"></path>
  <rect width="59.73" height="22.2" x="67.85" y="197.77" fill="#ffdee6"></rect>
  <polygon fill="#f9edf0" points="127.58 197.77 67.85 197.77 67.85 219.98 73.13 219.98 73.13 202.59 127.58 202.59 127.58 197.77"></polygon>
  <path fill="#cfd0e2" d="M127.58,222.93H67.85a3,3,0,0,1-3-3v-22.2a3,3,0,0,1,3-3h59.73a3,3,0,0,1,3,3V220A3,3,0,0,1,127.58,222.93ZM70.81,217h53.81V200.73H70.81Z"></path>
  <rect width="29.39" height="22.2" x="98.19" y="219.98" fill="#ffdee6"></rect>
  <polygon fill="#f9edf0" points="127.58 219.98 98.19 219.98 98.19 242.18 103.47 242.18 103.47 224.79 127.58 224.79 127.58 219.98"></polygon>
  <path fill="#cfd0e2" d="M127.58,245.14H98.19a3,3,0,0,1-3-3V220a3,3,0,0,1,3-3h29.39a3,3,0,0,1,3,3v22.2A3,3,0,0,1,127.58,245.14Zm-26.43-5.92h23.47V222.93H101.15Z"></path>
  <rect width="30.34" height="22.2" x="67.85" y="219.98" fill="#ffdee6" transform="rotate(180 83.02 231.08)"></rect>
  <polygon fill="#f9edf0" points="67.85 242.18 67.85 219.98 98.19 219.98 98.19 224.79 72.1 224.79 72.1 242.18 67.85 242.18"></polygon>
  <path fill="#cfd0e2" d="M98.19,245.14H67.85a3,3,0,0,1-3-3V220a3,3,0,0,1,3-3H98.19a3,3,0,0,1,3,3v22.2A3,3,0,0,1,98.19,245.14Zm-27.38-5.92H95.23V222.93H70.81Z"></path>
  <rect width="59.73" height="22.2" x="67.85" y="242.18" fill="#ffdee6"></rect>
  <polygon fill="#f9edf0" points="127.58 242.18 67.85 242.18 67.85 264.39 73.13 264.39 73.13 247 127.58 247 127.58 242.18"></polygon>
  <path fill="#cfd0e2" d="M127.58,267.34H67.85a3,3,0,0,1-3-2.95V242.18a3,3,0,0,1,3-3h59.73a3,3,0,0,1,3,3v22.21A3,3,0,0,1,127.58,267.34Zm-56.77-5.91h53.81V245.14H70.81Z"></path>
  <rect width="29.39" height="22.2" x="98.19" y="264.39" fill="#ffdee6"></rect>
  <polygon fill="#f9edf0" points="127.58 264.39 98.19 264.39 98.19 286.59 103.47 286.59 103.47 269.2 127.58 269.2 127.58 264.39"></polygon>
  <path fill="#cfd0e2" d="M127.58,289.55H98.19a3,3,0,0,1-3-3v-22.2a3,3,0,0,1,3-3h29.39a3,3,0,0,1,3,3v22.2A3,3,0,0,1,127.58,289.55Zm-26.43-5.92h23.47V267.34H101.15Z"></path>
  <rect width="30.34" height="22.2" x="67.85" y="264.39" fill="#ffdee6" transform="rotate(180 83.02 275.49)"></rect>
  <polygon fill="#f9edf0" points="67.85 286.59 67.85 264.39 98.19 264.39 98.19 269.2 72.1 269.2 72.1 286.59 67.85 286.59"></polygon>
  <path fill="#cfd0e2" d="M98.19,289.55H67.85a3,3,0,0,1-3-3v-22.2a3,3,0,0,1,3-3H98.19a3,3,0,0,1,3,3v22.2A3,3,0,0,1,98.19,289.55Zm-27.38-5.92H95.23V267.35H70.81Z"></path>
  <rect width="59.73" height="22.2" x="67.85" y="286.59" fill="#ffdee6"></rect>
  <polygon fill="#f9edf0" points="127.58 286.59 67.85 286.59 67.85 308.8 73.13 308.8 73.13 291.41 127.58 291.41 127.58 286.59"></polygon>
  <path fill="#cfd0e2" d="M127.58,311.75H67.85a3,3,0,0,1-3-2.95V286.59a3,3,0,0,1,3-2.95h59.73a3,3,0,0,1,3,2.95V308.8A3,3,0,0,1,127.58,311.75Zm-56.77-5.91h53.81V289.55H70.81Z"></path>
  <rect width="29.39" height="22.2" x="98.19" y="308.8" fill="#ffdee6"></rect>
  <polygon fill="#f9edf0" points="127.58 308.8 98.19 308.8 98.19 331 103.47 331 103.47 313.61 127.58 313.61 127.58 308.8"></polygon>
  <path fill="#cfd0e2" d="M127.58,334H98.19a3,3,0,0,1-3-3V308.8a3,3,0,0,1,3-3h29.39a3,3,0,0,1,3,3V331A3,3,0,0,1,127.58,334Zm-26.43-5.91h23.47V311.76H101.15Z"></path>
  <rect width="30.34" height="22.2" x="67.85" y="308.8" fill="#ffdee6" transform="rotate(180 83.02 319.9)"></rect>
  <polygon fill="#f9edf0" points="67.85 331 67.85 308.8 98.19 308.8 98.19 313.62 72.1 313.62 72.1 331 67.85 331"></polygon>
  <path fill="#cfd0e2" d="M98.19,334H67.85a3,3,0,0,1-3-3V308.8a3,3,0,0,1,3-3H98.19a3,3,0,0,1,3,3V331A3,3,0,0,1,98.19,334Zm-27.38-5.91H95.23V311.76H70.81Z"></path>
  <rect width="59.73" height="22.2" x="67.85" y="331" fill="#ffdee6"></rect>
  <polygon fill="#f9edf0" points="127.58 331 67.85 331 67.85 353.21 73.13 353.21 73.13 335.82 127.58 335.82 127.58 331"></polygon>
  <path fill="#cfd0e2" d="M127.58,356.17H67.85a3,3,0,0,1-3-3V331a3,3,0,0,1,3-3h59.73a3,3,0,0,1,3,3v22.2A3,3,0,0,1,127.58,356.17Zm-56.77-5.92h53.81V334H70.81Z"></path>
  <rect width="29.39" height="22.2" x="98.19" y="353.21" fill="#ffdee6"></rect>
  <polygon fill="#f9edf0" points="127.58 353.21 98.19 353.21 98.19 375.41 103.47 375.41 103.47 358.02 127.58 358.02 127.58 353.21"></polygon>
  <path fill="#cfd0e2" d="M127.58,378.37H98.19a3,3,0,0,1-3-3v-22.2a3,3,0,0,1,3-3h29.39a3,3,0,0,1,3,3v22.2A3,3,0,0,1,127.58,378.37Zm-26.43-5.91h23.47V356.17H101.15Z"></path>
  <rect width="30.34" height="22.2" x="67.85" y="353.21" fill="#ffdee6" transform="rotate(180 83.02 364.315)"></rect>
  <polygon fill="#f9edf0" points="67.85 375.42 67.85 353.21 98.19 353.21 98.19 358.03 72.1 358.03 72.1 375.42 67.85 375.42"></polygon>
  <path fill="#cfd0e2" d="M98.19,378.37H67.85a3,3,0,0,1-3-3v-22.2a3,3,0,0,1,3-3H98.19a3,3,0,0,1,3,3v22.2A3,3,0,0,1,98.19,378.37Zm-27.38-5.91H95.23V356.17H70.81Z"></path>
  <rect width="59.73" height="22.2" x="67.85" y="375.42" fill="#ffdee6"></rect>
  <polygon fill="#f9edf0" points="127.58 375.42 67.85 375.42 67.85 397.62 73.13 397.62 73.13 380.23 127.58 380.23 127.58 375.42"></polygon>
  <path fill="#cfd0e2" d="M127.58,400.58H67.85a3,3,0,0,1-3-3v-22.2a3,3,0,0,1,3-3h59.73a3,3,0,0,1,3,3v22.2A3,3,0,0,1,127.58,400.58Zm-56.77-5.92h53.81V378.37H70.81Z"></path>
  <rect width="29.39" height="22.2" x="98.19" y="397.62" fill="#ffdee6"></rect>
  <polygon fill="#f9edf0" points="127.58 397.62 98.19 397.62 98.19 419.82 103.47 419.82 103.47 402.44 127.58 402.44 127.58 397.62"></polygon>
  <path fill="#cfd0e2" d="M127.58,422.78H98.19a3,3,0,0,1-3-3v-22.2a3,3,0,0,1,3-3h29.39a3,3,0,0,1,3,3v22.2A3,3,0,0,1,127.58,422.78Zm-26.43-5.91h23.47V400.58H101.15Z"></path>
  <rect width="30.34" height="22.2" x="67.85" y="397.62" fill="#ffdee6" transform="rotate(180 83.02 408.725)"></rect>
  <polygon fill="#f9edf0" points="67.85 419.83 67.85 397.62 98.19 397.62 98.19 402.44 72.1 402.44 72.1 419.83 67.85 419.83"></polygon>
  <path fill="#cfd0e2" d="M98.19,422.78H67.85a3,3,0,0,1-3-2.95V397.62a3,3,0,0,1,3-2.95H98.19a3,3,0,0,1,3,2.95v22.21A3,3,0,0,1,98.19,422.78Zm-27.38-5.91H95.23V400.58H70.81Z"></path>
  <rect width="47.45" height="22.2" x="384.12" y="153.36" fill="#ffdee6"></rect>
  <path fill="#cfd0e2" d="M443.86,178.52H384.13a3,3,0,0,1-3-3v-22.2a3,3,0,0,1,3-3h43.59a3,3,0,0,1,1.9.7c1.73,1.46,3.48,2.9,5.22,4.35,3.63,3,7.38,6.1,11,9.3a3,3,0,0,1,1,2.21v8.6A3,3,0,0,1,443.86,178.52Zm-56.78-5.91H440.9v-4.32c-3.22-2.82-6.57-5.6-9.83-8.29l-4.43-3.68H387.08Z"></path>
  <rect width="29.39" height="22.2" x="414.47" y="175.57" fill="#ffdee6"></rect>
  <polygon fill="#f9edf0" points="443.86 175.56 414.47 175.56 414.47 197.77 419.74 197.77 419.74 180.38 443.86 180.38 443.86 175.56"></polygon>
  <path fill="#cfd0e2" d="M443.86,200.73H414.47a3,3,0,0,1-3-3v-22.2a3,3,0,0,1,3-3h29.39a3,3,0,0,1,2.95,3v22.2A3,3,0,0,1,443.86,200.73Zm-26.44-5.92H440.9V178.52H417.42Z"></path>
  <rect width="30.34" height="22.2" x="384.12" y="175.57" fill="#ffdee6" transform="rotate(180 399.295 186.67)"></rect>
  <polygon fill="#f9edf0" points="384.13 197.77 384.13 175.57 414.46 175.57 414.46 180.38 388.37 180.38 388.37 197.77 384.13 197.77"></polygon>
  <path fill="#cfd0e2" d="M414.47,200.73H384.13a3,3,0,0,1-3-3v-22.2a3,3,0,0,1,3-3h30.34a3,3,0,0,1,2.95,3v22.2A3,3,0,0,1,414.47,200.73Zm-27.39-5.92h24.43V178.52H387.08Z"></path>
  <rect width="59.73" height="22.2" x="384.12" y="197.77" fill="#ffdee6"></rect>
  <polygon fill="#f9edf0" points="443.86 197.77 384.13 197.77 384.13 219.98 389.4 219.98 389.4 202.59 443.86 202.59 443.86 197.77"></polygon>
  <path fill="#cfd0e2" d="M443.86,222.93H384.13a3,3,0,0,1-3-3v-22.2a3,3,0,0,1,3-3h59.73a3,3,0,0,1,2.95,3V220A3,3,0,0,1,443.86,222.93ZM387.08,217H440.9V200.73H387.08Z"></path>
  <rect width="29.39" height="22.2" x="414.47" y="219.98" fill="#ffdee6"></rect>
  <polygon fill="#f9edf0" points="443.86 219.98 414.47 219.98 414.47 242.18 419.74 242.18 419.74 224.79 443.86 224.79 443.86 219.98"></polygon>
  <path fill="#cfd0e2" d="M443.86,245.14H414.47a3,3,0,0,1-3-3V220a3,3,0,0,1,3-3h29.39a3,3,0,0,1,2.95,3v22.2A3,3,0,0,1,443.86,245.14Zm-26.44-5.92H440.9V222.93H417.42Z"></path>
  <rect width="30.34" height="22.2" x="384.12" y="219.98" fill="#ffdee6" transform="rotate(180 399.295 231.08)"></rect>
  <polygon fill="#f9edf0" points="384.13 242.18 384.13 219.98 414.46 219.98 414.46 224.79 388.37 224.79 388.37 242.18 384.13 242.18"></polygon>
  <path fill="#cfd0e2" d="M414.47,245.14H384.13a3,3,0,0,1-3-3V220a3,3,0,0,1,3-3h30.34a3,3,0,0,1,2.95,3v22.2A3,3,0,0,1,414.47,245.14Zm-27.39-5.92h24.43V222.93H387.08Z"></path>
  <rect width="59.73" height="22.2" x="384.12" y="242.18" fill="#ffdee6"></rect>
  <polygon fill="#f9edf0" points="443.86 242.18 384.13 242.18 384.13 264.39 389.4 264.39 389.4 247 443.86 247 443.86 242.18"></polygon>
  <path fill="#cfd0e2" d="M443.86,267.34H384.13a3,3,0,0,1-3-2.95V242.18a3,3,0,0,1,3-3h59.73a3,3,0,0,1,2.95,3v22.21A3,3,0,0,1,443.86,267.34Zm-56.78-5.91H440.9V245.14H387.08Z"></path>
  <rect width="29.39" height="22.2" x="414.47" y="264.39" fill="#ffdee6"></rect>
  <polygon fill="#f9edf0" points="443.86 264.39 414.47 264.39 414.47 286.59 419.74 286.59 419.74 269.2 443.86 269.2 443.86 264.39"></polygon>
  <path fill="#cfd0e2" d="M443.86,289.55H414.47a3,3,0,0,1-3-3v-22.2a3,3,0,0,1,3-3h29.39a3,3,0,0,1,2.95,3v22.2A3,3,0,0,1,443.86,289.55Zm-26.44-5.92H440.9V267.34H417.42Z"></path>
  <rect width="30.34" height="22.2" x="384.12" y="264.39" fill="#ffdee6" transform="rotate(180 399.295 275.49)"></rect>
  <polygon fill="#f9edf0" points="384.13 286.59 384.13 264.39 414.46 264.39 414.46 269.2 388.37 269.2 388.37 286.59 384.13 286.59"></polygon>
  <path fill="#cfd0e2" d="M414.47,289.55H384.13a3,3,0,0,1-3-3v-22.2a3,3,0,0,1,3-3h30.34a3,3,0,0,1,2.95,3v22.2A3,3,0,0,1,414.47,289.55Zm-27.39-5.92h24.43V267.35H387.08Z"></path>
  <rect width="59.73" height="22.2" x="384.12" y="286.59" fill="#ffdee6"></rect>
  <polygon fill="#f9edf0" points="443.86 286.59 384.13 286.59 384.13 308.8 389.4 308.8 389.4 291.41 443.86 291.41 443.86 286.59"></polygon>
  <path fill="#cfd0e2" d="M443.86,311.75H384.13a3,3,0,0,1-3-2.95V286.59a3,3,0,0,1,3-2.95h59.73a3,3,0,0,1,2.95,2.95V308.8A3,3,0,0,1,443.86,311.75Zm-56.78-5.91H440.9V289.55H387.08Z"></path>
  <rect width="29.39" height="22.2" x="414.47" y="308.8" fill="#ffdee6"></rect>
  <polygon fill="#f9edf0" points="443.86 308.8 414.47 308.8 414.47 331 419.74 331 419.74 313.61 443.86 313.61 443.86 308.8"></polygon>
  <path fill="#cfd0e2" d="M443.86,334H414.47a3,3,0,0,1-3-3V308.8a3,3,0,0,1,3-3h29.39a3,3,0,0,1,2.95,3V331A3,3,0,0,1,443.86,334Zm-26.44-5.91H440.9V311.76H417.42Z"></path>
  <rect width="30.34" height="22.2" x="384.12" y="308.8" fill="#ffdee6" transform="rotate(180 399.295 319.9)"></rect>
  <polygon fill="#f9edf0" points="384.13 331 384.13 308.8 414.46 308.8 414.46 313.62 388.37 313.62 388.37 331 384.13 331"></polygon>
  <path fill="#cfd0e2" d="M414.47,334H384.13a3,3,0,0,1-3-3V308.8a3,3,0,0,1,3-3h30.34a3,3,0,0,1,2.95,3V331A3,3,0,0,1,414.47,334Zm-27.39-5.91h24.43V311.76H387.08Z"></path>
  <rect width="59.73" height="22.2" x="384.12" y="331" fill="#ffdee6"></rect>
  <polygon fill="#f9edf0" points="443.86 331 384.13 331 384.13 353.21 389.4 353.21 389.4 335.82 443.86 335.82 443.86 331"></polygon>
  <path fill="#cfd0e2" d="M443.86,356.17H384.13a3,3,0,0,1-3-3V331a3,3,0,0,1,3-3h59.73a3,3,0,0,1,2.95,3v22.2A3,3,0,0,1,443.86,356.17Zm-56.78-5.92H440.9V334H387.08Z"></path>
  <rect width="29.39" height="22.2" x="414.47" y="353.21" fill="#ffdee6"></rect>
  <polygon fill="#f9edf0" points="443.86 353.21 414.47 353.21 414.47 375.41 419.74 375.41 419.74 358.02 443.86 358.02 443.86 353.21"></polygon>
  <path fill="#cfd0e2" d="M443.86,378.37H414.47a3,3,0,0,1-3-3v-22.2a3,3,0,0,1,3-3h29.39a3,3,0,0,1,2.95,3v22.2A3,3,0,0,1,443.86,378.37Zm-26.44-5.91H440.9V356.17H417.42Z"></path>
  <rect width="30.34" height="22.2" x="384.12" y="353.21" fill="#ffdee6" transform="rotate(180 399.295 364.315)"></rect>
  <polygon fill="#f9edf0" points="384.13 375.42 384.13 353.21 414.46 353.21 414.46 358.03 388.37 358.03 388.37 375.42 384.13 375.42"></polygon>
  <path fill="#cfd0e2" d="M414.47,378.37H384.13a3,3,0,0,1-3-3v-22.2a3,3,0,0,1,3-3h30.34a3,3,0,0,1,2.95,3v22.2A3,3,0,0,1,414.47,378.37Zm-27.39-5.91h24.43V356.17H387.08Z"></path>
  <rect width="59.73" height="22.2" x="384.12" y="375.42" fill="#ffdee6"></rect>
  <polygon fill="#f9edf0" points="443.86 375.42 384.13 375.42 384.13 397.62 389.4 397.62 389.4 380.23 443.86 380.23 443.86 375.42"></polygon>
  <path fill="#cfd0e2" d="M443.86,400.58H384.13a3,3,0,0,1-3-3v-22.2a3,3,0,0,1,3-3h59.73a3,3,0,0,1,2.95,3v22.2A3,3,0,0,1,443.86,400.58Zm-56.78-5.92H440.9V378.37H387.08Z"></path>
  <rect width="29.39" height="22.2" x="414.47" y="397.62" fill="#ffdee6"></rect>
  <polygon fill="#f9edf0" points="443.86 397.62 414.47 397.62 414.47 419.82 419.74 419.82 419.74 402.44 443.86 402.44 443.86 397.62"></polygon>
  <path fill="#cfd0e2" d="M443.86,422.78H414.47a3,3,0,0,1-3-3v-22.2a3,3,0,0,1,3-3h29.39a3,3,0,0,1,2.95,3v22.2A3,3,0,0,1,443.86,422.78Zm-26.44-5.91H440.9V400.58H417.42Z"></path>
  <rect width="30.34" height="22.2" x="384.12" y="397.62" fill="#ffdee6" transform="rotate(180 399.295 408.725)"></rect>
  <polygon fill="#f9edf0" points="384.13 419.83 384.13 397.62 414.46 397.62 414.46 402.44 388.37 402.44 388.37 419.83 384.13 419.83"></polygon>
  <path fill="#cfd0e2" d="M414.47,422.78H384.13a3,3,0,0,1-3-2.95V397.62a3,3,0,0,1,3-2.95h30.34a3,3,0,0,1,2.95,2.95v22.21A3,3,0,0,1,414.47,422.78Zm-27.39-5.91h24.43V400.58H387.08Z"></path>
  <polygon fill="#ffdee6" points="223.59 86.74 224.52 86.24 224.52 86.74 223.59 86.74"></polygon>
  <path fill="#cfd0e2" d="M224.52,89.7h-.93a3,3,0,0,1-1.4-5.56l.93-.5a3,3,0,0,1,4.36,2.6v.5A3,3,0,0,1,224.52,89.7Z"></path>
  <polygon fill="#ffdee6" points="286.67 86.74 224.52 86.74 224.52 86.24 229.97 83.3 255.86 69.36 286.67 86.74"></polygon>
  <polygon fill="#f9edf0" points="229.97 83.3 229.97 86.74 224.52 86.74 224.52 86.24 229.97 83.3"></polygon>
  <path fill="#cfd0e2" d="M286.67,89.7H224.52a3,3,0,0,1-3-3v-.5a2.93,2.93,0,0,1,1.55-2.6l31.34-16.89a3,3,0,0,1,2.86,0l30.81,17.39a3,3,0,0,1-1.46,5.53Zm-62.15-3.46h0Zm10.79-2.46h40.1l-19.58-11Z"></path>
  <polygon fill="#ffdee6" points="193.18 103.12 193.18 108.95 182.36 108.95 193.18 103.12"></polygon>
  <path fill="#cfd0e2" d="M193.18,111.91H182.36a3,3,0,0,1-1.4-5.56l10.82-5.83a3,3,0,0,1,4.36,2.6V109A3,3,0,0,1,193.18,111.91Z"></path>
  <polygon fill="#ffdee6" points="255.85 86.74 255.85 108.95 193.18 108.95 193.18 103.12 198.63 100.18 214.66 91.55 223.59 86.74 255.85 86.74"></polygon>
  <polygon fill="#f9edf0" points="193.18 103.12 198.63 100.18 198.63 108.95 193.18 108.95 193.18 103.12"></polygon>
  <polygon fill="#f9edf0" points="255.85 86.74 255.85 91.55 214.66 91.55 223.59 86.74 255.85 86.74"></polygon>
  <path fill="#cfd0e2" d="M255.85,111.91H193.18a3,3,0,0,1-3-3v-5.83a2.94,2.94,0,0,1,1.56-2.6l30.41-16.38a3,3,0,0,1,1.4-.36h32.26a3,3,0,0,1,3,3V109A3,3,0,0,1,255.85,111.91ZM196.14,106h56.75V89.7H224.34l-28.2,15.19Z"></path>
  <polygon fill="#ffdee6" points="318.51 104.72 318.51 108.95 255.85 108.95 255.85 86.74 286.67 86.74 295.2 91.55 318.51 104.72"></polygon>
  <polygon fill="#f9edf0" points="295.2 91.55 261.3 91.55 261.3 108.95 255.86 108.95 255.86 86.74 286.67 86.74 295.2 91.55"></polygon>
  <path fill="#cfd0e2" d="M318.51,111.91H255.85a3,3,0,0,1-3-3V86.74a3,3,0,0,1,3-3h30.82a3,3,0,0,1,1.46.39l31.84,18a3,3,0,0,1,1.5,2.58V109A3,3,0,0,1,318.51,111.91ZM258.81,106h55.95L285.9,89.7H258.81Z"></path>
  <polygon fill="#ffdee6" points="326.02 108.95 318.51 108.95 318.51 104.72 318.53 104.72 323.96 107.79 326.02 108.95"></polygon>
  <polygon fill="#f9edf0" points="323.96 107.79 323.96 108.95 318.53 108.95 318.53 104.72 323.96 107.79"></polygon>
  <path fill="#cfd0e2" d="M326,111.91h-7.51a3,3,0,0,1-2.95-3v-4.23a3,3,0,0,1,2.95-3,3.08,3.08,0,0,1,1.48.38l7.48,4.23a3,3,0,0,1-1.45,5.54Z"></path>
  <polygon fill="#ffdee6" points="161.86 120 161.86 131.16 141.13 131.16 161.86 120"></polygon>
  <path fill="#cfd0e2" d="M161.86,134.11H141.12a3,3,0,0,1-1.4-5.56l20.74-11.15a2.95,2.95,0,0,1,4.35,2.6v11.16A3,3,0,0,1,161.86,134.11Zm-9-5.91h6V125Z"></path>
  <polygon fill="#ffdee6" points="224.52 108.95 224.52 131.16 161.86 131.16 161.86 120 167.29 117.06 167.29 113.76 173.43 113.76 182.36 108.95 224.52 108.95"></polygon>
  <polygon fill="#f9edf0" points="161.86 120 167.29 117.06 167.29 131.16 161.86 131.16 161.86 120"></polygon>
  <polygon fill="#f9edf0" points="224.52 108.95 224.52 113.76 173.43 113.76 182.36 108.95 224.52 108.95"></polygon>
  <path fill="#cfd0e2" d="M224.52,134.11H161.86a3,3,0,0,1-3-3V120a2.94,2.94,0,0,1,1.55-2.6l3.88-2.1v-1.54a3,3,0,0,1,3-3h5.39l8.28-4.45a2.86,2.86,0,0,1,1.4-.36h42.16a3,3,0,0,1,3,3v22.21A3,3,0,0,1,224.52,134.11Zm-59.71-5.91h56.76V111.91H183.11l-8.28,4.45a2.89,2.89,0,0,1-1.4.36h-3.18v.34a3,3,0,0,1-1.55,2.6l-3.89,2.1Z"></path>
  <rect width="62.67" height="22.2" x="224.52" y="108.95" fill="#ffdee6" transform="rotate(180 255.855 120.05)"></rect>
  <polygon fill="#f9edf0" points="224.52 131.15 224.52 108.95 287.19 108.95 287.19 113.76 229.97 113.76 229.97 131.15 224.52 131.15"></polygon>
  <path fill="#cfd0e2" d="M287.19,134.11H224.52a3,3,0,0,1-3-3V109a3,3,0,0,1,3-3h62.67a3,3,0,0,1,2.95,3v22.2A3,3,0,0,1,287.19,134.11Zm-59.71-5.92h56.75V111.9H227.48Z"></path>
  <polygon fill="#ffdee6" points="349.86 113.76 349.86 131.16 287.19 131.16 287.19 108.95 326.02 108.95 334.56 113.76 349.86 113.76"></polygon>
  <polygon fill="#f9edf0" points="334.56 113.76 292.64 113.76 292.64 131.16 287.19 131.16 287.19 108.95 326.02 108.95 334.56 113.76"></polygon>
  <path fill="#cfd0e2" d="M349.86,134.11H287.19a3,3,0,0,1-3-3V109a3,3,0,0,1,3-3H326a2.93,2.93,0,0,1,1.45.38l7.87,4.43h14.52a3,3,0,0,1,2.95,3v17.4A3,3,0,0,1,349.86,134.11Zm-59.71-5.91H346.9V116.72H334.56a2.93,2.93,0,0,1-1.45-.38l-7.87-4.43H290.15Z"></path>
  <polygon fill="#ffdee6" points="365.38 131.16 349.86 131.16 349.86 122.39 355.31 125.47 365.38 131.16"></polygon>
  <polygon fill="#f9edf0" points="355.31 125.47 355.31 131.16 349.86 131.16 349.86 122.39 355.31 125.47"></polygon>
  <path fill="#cfd0e2" d="M365.38,134.11H349.86a3,3,0,0,1-3-3v-8.77a3,3,0,0,1,4.41-2.57l15.53,8.76a3,3,0,0,1-1.46,5.53Zm-12.57-5.91h1.33l-1.33-.75Z"></path>
  <polygon fill="#ffdee6" points="130.52 136.88 130.52 153.35 99.94 153.35 130.52 136.88"></polygon>
  <path fill="#cfd0e2" d="M130.52,156.31H99.94a3,3,0,0,1-1.4-5.56l30.58-16.47a2.95,2.95,0,0,1,4.35,2.6v16.47A3,3,0,0,1,130.52,156.31Zm-18.86-5.92h15.9v-8.56Z"></path>
  <rect width="62.67" height="22.19" x="130.52" y="131.16" fill="#ffdee6"></rect>
  <polygon fill="#f9edf0" points="193.18 131.16 193.18 135.97 135.97 135.97 135.97 153.35 130.52 153.35 130.52 131.16 193.18 131.16"></polygon>
  <path fill="#cfd0e2" d="M193.18,156.31H130.52a3,3,0,0,1-3-3V131.16a3,3,0,0,1,3-3h62.66a3,3,0,0,1,3,3v22.19A3,3,0,0,1,193.18,156.31Zm-59.71-5.92h56.75V134.11H133.47Z"></path>
  <rect width="62.67" height="22.2" x="193.19" y="131.15" fill="#ffdee6" transform="rotate(180 224.52 142.255)"></rect>
  <polygon fill="#f9edf0" points="193.19 153.36 193.19 131.15 255.85 131.15 255.85 135.97 198.63 135.97 198.63 153.36 193.19 153.36"></polygon>
  <path fill="#cfd0e2" d="M255.85,156.31H193.19a3,3,0,0,1-3-2.95V131.15a3,3,0,0,1,3-3h62.66a3,3,0,0,1,3,3v22.21A3,3,0,0,1,255.85,156.31Zm-59.71-5.91h56.75V134.11H196.14Z"></path>
  <rect width="62.67" height="22.2" x="255.85" y="131.15" fill="#ffdee6" transform="rotate(180 287.185 142.255)"></rect>
  <polygon fill="#f9edf0" points="255.86 153.36 255.86 131.15 318.52 131.15 318.52 135.97 261.3 135.97 261.3 153.36 255.86 153.36"></polygon>
  <path fill="#cfd0e2" d="M318.52,156.31H255.85a3,3,0,0,1-3-2.95V131.15a3,3,0,0,1,3-3h62.67a3,3,0,0,1,3,3v22.21A3,3,0,0,1,318.52,156.31Zm-59.71-5.91h56.75V134.11H258.81Z"></path>
  <rect width="62.67" height="22.19" x="318.52" y="131.16" fill="#ffdee6"></rect>
  <polygon fill="#f9edf0" points="381.18 131.16 381.18 135.97 323.96 135.97 323.96 153.35 318.53 153.35 318.53 131.16 381.18 131.16"></polygon>
  <path fill="#cfd0e2" d="M381.18,156.31H318.51a3,3,0,0,1-2.95-3V131.16a3,3,0,0,1,2.95-3h62.67a3,3,0,0,1,3,3v22.19A3,3,0,0,1,381.18,156.31Zm-59.71-5.92h56.75V134.11H321.47Z"></path>
  <polygon fill="#ffdee6" points="404.71 153.35 381.18 153.35 381.18 131.16 381.2 131.16 381.2 140.08 386.63 143.15 404.71 153.35"></polygon>
  <polygon fill="#f9edf0" points="386.63 143.15 386.63 153.35 381.2 153.35 381.2 140.08 386.63 143.15"></polygon>
  <path fill="#cfd0e2" d="M404.71,156.31H381.18a3,3,0,0,1-3-3V131.16a3,3,0,0,1,5.93,0v7.19l22,12.42a3,3,0,0,1-1.46,5.54Zm-20.57-5.92h9.31l-9.31-5.25Z"></path>
  <rect width="62.67" height="22.21" x="99.19" y="153.35" fill="#ffdee6"></rect>
  <polygon fill="#f9edf0" points="161.86 153.35 161.86 158.18 104.62 158.18 104.62 175.56 99.19 175.56 99.19 153.35 161.86 153.35"></polygon>
  <path fill="#cfd0e2" d="M161.86,178.52H99.19a3,3,0,0,1-3-3V153.35a3,3,0,0,1,3-3h62.67a3,3,0,0,1,2.95,3v22.21A3,3,0,0,1,161.86,178.52Zm-59.71-5.92H158.9V156.31H102.15Z"></path>
  <rect width="62.67" height="22.2" x="161.85" y="153.36" fill="#ffdee6" transform="rotate(180 193.185 164.46)"></rect>
  <polygon fill="#f9edf0" points="161.85 175.56 161.85 153.36 224.52 153.36 224.52 158.17 167.3 158.17 167.3 175.56 161.85 175.56"></polygon>
  <path fill="#cfd0e2" d="M224.52,178.52H161.85a3,3,0,0,1-3-3v-22.2a3,3,0,0,1,3-3h62.67a3,3,0,0,1,3,3v22.2A3,3,0,0,1,224.52,178.52Zm-59.71-5.92h56.75V156.31H164.81Z"></path>
  <rect width="62.67" height="22.2" x="224.52" y="153.36" fill="#ffdee6" transform="rotate(180 255.855 164.46)"></rect>
  <polygon fill="#f9edf0" points="224.52 175.56 224.52 153.36 287.19 153.36 287.19 158.17 229.97 158.17 229.97 175.56 224.52 175.56"></polygon>
  <path fill="#cfd0e2" d="M287.19,178.52H224.52a3,3,0,0,1-3-3v-22.2a3,3,0,0,1,3-3h62.67a3,3,0,0,1,2.95,3v22.2A3,3,0,0,1,287.19,178.52Zm-59.71-5.92h56.75V156.31H227.48Z"></path>
  <rect width="62.67" height="22.2" x="287.19" y="153.36" fill="#ffdee6" transform="rotate(180 318.52 164.46)"></rect>
  <polygon fill="#f9edf0" points="287.19 175.56 287.19 153.36 349.85 153.36 349.85 158.17 292.63 158.17 292.63 175.56 287.19 175.56"></polygon>
  <path fill="#cfd0e2" d="M349.85,178.52H287.19a3,3,0,0,1-3-3v-22.2a3,3,0,0,1,3-3h62.66a3,3,0,0,1,3,3v22.2A3,3,0,0,1,349.85,178.52Zm-59.71-5.92H346.9V156.31H290.14Z"></path>
  <rect width="62.67" height="22.21" x="349.86" y="153.35" fill="#ffdee6"></rect>
  <polygon fill="#f9edf0" points="412.52 153.35 412.52 158.18 355.31 158.18 355.31 175.56 349.86 175.56 349.86 153.35 412.52 153.35"></polygon>
  <path fill="#cfd0e2" d="M412.52,178.52H349.86a3,3,0,0,1-3-3V153.35a3,3,0,0,1,3-3h62.66a3,3,0,0,1,3,3v22.21A3,3,0,0,1,412.52,178.52Zm-59.71-5.92h56.76V156.31H352.81Z"></path>
  <polygon fill="#ffdee6" points="443.85 175.44 443.85 175.56 412.52 175.56 412.52 157.75 416.91 160.23 443.85 175.44"></polygon>
  <polygon fill="#f9edf0" points="416.91 160.23 416.91 175.56 412.52 175.56 412.52 157.75 416.91 160.23"></polygon>
  <path fill="#cfd0e2" d="M443.85,178.52H412.52a3,3,0,0,1-2.95-3V157.75a2.94,2.94,0,0,1,4.41-2.57l31.32,17.68a3,3,0,0,1,1.51,2.58v.12A3,3,0,0,1,443.85,178.52Zm-28.37-5.92h17.33l-17.33-9.78Z"></path>
  <polygon fill="#ffdee6" points="99.19 153.75 99.19 175.56 67.85 175.56 67.85 170.63 72.23 168.27 90.97 158.18 99.19 153.75"></polygon>
  <polygon fill="#f9edf0" points="67.85 170.63 72.23 168.27 72.23 175.56 67.85 175.56 67.85 170.63"></polygon>
  <polygon fill="#f9edf0" points="99.19 153.75 99.19 158.18 90.97 158.18 99.19 153.75"></polygon>
  <path fill="#cfd0e2" d="M99.19,178.52H67.85a3,3,0,0,1-3-3v-4.93A3,3,0,0,1,66.45,168l31.34-16.88a3,3,0,0,1,4.36,2.61v21.81A3,3,0,0,1,99.19,178.52ZM70.81,172.6H96.23V158.7L70.81,172.39Z"></path>
  <rect width="62.67" height="22.2" x="67.85" y="175.56" fill="#ffdee6" transform="rotate(180 99.185 186.665)"></rect>
  <polygon fill="#f9edf0" points="67.85 197.77 67.85 175.56 130.52 175.56 130.52 180.38 73.3 180.38 73.3 197.77 67.85 197.77"></polygon>
  <path fill="#cfd0e2" d="M130.52,200.72H67.85a3,3,0,0,1-3-2.95V175.56a3,3,0,0,1,3-2.95h62.67a3,3,0,0,1,2.95,2.95v22.21A3,3,0,0,1,130.52,200.72Zm-59.71-5.91h56.75V178.52H70.81Z"></path>
  <rect width="62.67" height="22.2" x="130.52" y="175.56" fill="#ffdee6" transform="rotate(180 161.85 186.665)"></rect>
  <polygon fill="#f9edf0" points="130.52 197.77 130.52 175.56 193.18 175.56 193.18 180.38 135.97 180.38 135.97 197.77 130.52 197.77"></polygon>
  <path fill="#cfd0e2" d="M193.19,200.72H130.52a3,3,0,0,1-3-2.95V175.56a3,3,0,0,1,3-2.95h62.67a3,3,0,0,1,2.95,2.95v22.21A3,3,0,0,1,193.19,200.72Zm-59.72-5.91h56.76V178.52H133.47Z"></path>
  <rect width="62.67" height="22.2" x="193.19" y="175.56" fill="#ffdee6" transform="rotate(180 224.52 186.665)"></rect>
  <polygon fill="#f9edf0" points="193.19 197.77 193.19 175.56 255.85 175.56 255.85 180.38 198.63 180.38 198.63 197.77 193.19 197.77"></polygon>
  <path fill="#cfd0e2" d="M255.85,200.72H193.19a3,3,0,0,1-3-2.95V175.56a3,3,0,0,1,3-2.95h62.66a3,3,0,0,1,3,2.95v22.21A3,3,0,0,1,255.85,200.72Zm-59.71-5.91h56.75V178.52H196.14Z"></path>
  <rect width="62.67" height="22.2" x="255.85" y="175.56" fill="#ffdee6" transform="rotate(180 287.185 186.665)"></rect>
  <polygon fill="#f9edf0" points="255.86 197.77 255.86 175.56 318.52 175.56 318.52 180.38 261.3 180.38 261.3 197.77 255.86 197.77"></polygon>
  <path fill="#cfd0e2" d="M318.52,200.72H255.85a3,3,0,0,1-3-2.95V175.56a3,3,0,0,1,3-2.95h62.67a3,3,0,0,1,3,2.95v22.21A3,3,0,0,1,318.52,200.72Zm-59.71-5.91h56.75V178.52H258.81Z"></path>
  <rect width="62.67" height="22.2" x="318.52" y="175.56" fill="#ffdee6" transform="rotate(180 349.855 186.665)"></rect>
  <polygon fill="#f9edf0" points="318.52 197.77 318.52 175.56 381.19 175.56 381.19 180.38 323.97 180.38 323.97 197.77 318.52 197.77"></polygon>
  <path fill="#cfd0e2" d="M381.19,200.72H318.52a3,3,0,0,1-3-2.95V175.56a3,3,0,0,1,3-2.95h62.67a3,3,0,0,1,2.95,2.95v22.21A3,3,0,0,1,381.19,200.72Zm-59.71-5.91h56.75V178.52H321.48Z"></path>
  <rect width="62.67" height="22.2" x="381.19" y="175.56" fill="#ffdee6" transform="rotate(180 412.52 186.665)"></rect>
  <polygon fill="#f9edf0" points="381.19 197.77 381.19 175.56 443.86 175.56 443.86 180.38 386.63 180.38 386.63 197.77 381.19 197.77"></polygon>
  <path fill="#cfd0e2" d="M443.86,200.72H381.19a3,3,0,0,1-3-2.95V175.56a3,3,0,0,1,3-2.95h62.67a3,3,0,0,1,2.95,2.95v22.21A3,3,0,0,1,443.86,200.72Zm-59.72-5.91H440.9V178.52H384.14Z"></path>
  <rect width="62.67" height="22.2" x="99.18" y="197.77" fill="#ffdee6" transform="rotate(180 130.52 208.87)"></rect>
  <polygon fill="#f9edf0" points="99.19 219.97 99.19 197.77 161.85 197.77 161.85 202.59 104.63 202.59 104.63 219.97 99.19 219.97"></polygon>
  <path fill="#cfd0e2" d="M161.85,222.93H99.18a3,3,0,0,1-3-3v-22.2a3,3,0,0,1,3-3h62.67a3,3,0,0,1,3,3V220A3,3,0,0,1,161.85,222.93ZM102.14,217h56.75V200.73H102.14Z"></path>
  <rect width="62.67" height="22.2" x="161.85" y="197.77" fill="#ffdee6" transform="rotate(180 193.185 208.87)"></rect>
  <polygon fill="#f9edf0" points="161.85 219.97 161.85 197.77 224.52 197.77 224.52 202.59 167.3 202.59 167.3 219.97 161.85 219.97"></polygon>
  <path fill="#cfd0e2" d="M224.52,222.93H161.85a3,3,0,0,1-3-3v-22.2a3,3,0,0,1,3-3h62.67a3,3,0,0,1,3,3V220A3,3,0,0,1,224.52,222.93ZM164.81,217h56.75V200.73H164.81Z"></path>
  <rect width="62.67" height="22.2" x="224.52" y="197.77" fill="#ffdee6" transform="rotate(180 255.855 208.87)"></rect>
  <polygon fill="#f9edf0" points="224.52 219.97 224.52 197.77 287.19 197.77 287.19 202.59 229.97 202.59 229.97 219.97 224.52 219.97"></polygon>
  <path fill="#cfd0e2" d="M287.19,222.93H224.52a3,3,0,0,1-3-3v-22.2a3,3,0,0,1,3-3h62.67a3,3,0,0,1,2.95,3V220A3,3,0,0,1,287.19,222.93ZM227.48,217h56.75V200.73H227.48Z"></path>
  <rect width="62.67" height="22.2" x="287.19" y="197.77" fill="#ffdee6" transform="rotate(180 318.52 208.87)"></rect>
  <polygon fill="#f9edf0" points="287.19 219.97 287.19 197.77 349.85 197.77 349.85 202.59 292.63 202.59 292.63 219.97 287.19 219.97"></polygon>
  <path fill="#cfd0e2" d="M349.85,222.93H287.19a3,3,0,0,1-3-3v-22.2a3,3,0,0,1,3-3h62.66a3,3,0,0,1,3,3V220A3,3,0,0,1,349.85,222.93ZM290.14,217H346.9V200.73H290.14Z"></path>
  <rect width="62.67" height="22.2" x="349.85" y="197.77" fill="#ffdee6" transform="rotate(180 381.19 208.87)"></rect>
  <polygon fill="#f9edf0" points="349.86 219.97 349.86 197.77 412.52 197.77 412.52 202.59 355.3 202.59 355.3 219.97 349.86 219.97"></polygon>
  <path fill="#cfd0e2" d="M412.52,222.93H349.85a3,3,0,0,1-3-3v-22.2a3,3,0,0,1,3-3h62.67a3,3,0,0,1,3,3V220A3,3,0,0,1,412.52,222.93ZM352.81,217h56.75V200.73H352.81Z"></path>
  <rect width="31.33" height="22.2" x="412.52" y="197.77" fill="#ffdee6" transform="rotate(180 428.19 208.87)"></rect>
  <polygon fill="#f9edf0" points="412.52 219.97 412.52 197.77 443.85 197.77 443.85 202.59 416.91 202.59 416.91 219.97 412.52 219.97"></polygon>
  <path fill="#cfd0e2" d="M443.86,222.93H412.52a3,3,0,0,1-3-3v-22.2a3,3,0,0,1,3-3h31.34a3,3,0,0,1,2.95,3V220A3,3,0,0,1,443.86,222.93ZM415.48,217H440.9V200.73H415.48Z"></path>
  <rect width="31.33" height="22.2" x="67.85" y="197.77" fill="#ffdee6" transform="rotate(180 83.515 208.87)"></rect>
  <polygon fill="#f9edf0" points="67.85 219.97 67.85 197.77 99.18 197.77 99.18 202.59 72.24 202.59 72.24 219.97 67.85 219.97"></polygon>
  <path fill="#cfd0e2" d="M99.18,222.93H67.85a3,3,0,0,1-3-3v-22.2a3,3,0,0,1,3-3H99.18a3,3,0,0,1,3,3V220A3,3,0,0,1,99.18,222.93ZM70.81,217H96.23V200.73H70.81Z"></path>
  <polygon fill="#e6ebf6" points="505.13 190.69 255.98 56.69 6.58 190.85 20.58 218.41 255.99 94.58 491.41 218.41 505.13 190.69"></polygon>
  <path fill="#cfd0e2" d="M20.58,221.37a2.77,2.77,0,0,1-.9-.14,3,3,0,0,1-1.74-1.48l-14-27.57a3,3,0,0,1,1.24-3.94L254.58,54.09a3,3,0,0,1,2.8,0l249.15,134a3,3,0,0,1,1.25,3.92l-13.72,27.72a3,3,0,0,1-4,1.3L256,97.93,22,221A2.93,2.93,0,0,1,20.58,221.37ZM10.52,192.08,21.86,214.4,254.62,92a3,3,0,0,1,2.75,0L490.1,214.39l11.11-22.45L256,60.05Z"></path>
  <rect width="25.66" height="40.62" x="306" y="375.62" fill="#ced8ee" rx="5.24" transform="rotate(-.1 303.338 378.417)"></rect>
  <path fill="#cfd0e2" d="M311.26,419.2a8.2,8.2,0,0,1-8.19-8.18L303,380.88a8.2,8.2,0,0,1,8.18-8.21l15.18,0h0a8.19,8.19,0,0,1,8.2,8.18l.05,30.14a8.19,8.19,0,0,1-8.18,8.21l-15.18,0Zm15.13-40.64-15.18,0a2.28,2.28,0,0,0-2.28,2.29L309,411a2.29,2.29,0,0,0,2.28,2.28h0l15.17,0a2.29,2.29,0,0,0,1.62-.67,2.21,2.21,0,0,0,.66-1.61l-.05-30.14a2.22,2.22,0,0,0-.67-1.61,2.26,2.26,0,0,0-1.61-.67Z"></path>
  <rect width="25.66" height="40.62" x="180.05" y="375.62" fill="#ced8ee" rx="5.24" transform="rotate(-.1 183.016 378.312)"></rect>
  <path fill="#cfd0e2" d="M185.31,419.2a8.2,8.2,0,0,1-8.19-8.18l-.05-30.14a8.2,8.2,0,0,1,8.18-8.21l15.18,0h0a8.21,8.21,0,0,1,8.2,8.18l.05,30.14a8.22,8.22,0,0,1-8.19,8.21l-15.17,0Zm15.13-40.64-15.18,0a2.28,2.28,0,0,0-2.28,2.29L183,411a2.29,2.29,0,0,0,2.28,2.28h0l15.17,0a2.28,2.28,0,0,0,2.28-2.28l-.05-30.14a2.28,2.28,0,0,0-2.28-2.28Z"></path>
  <path fill="#e6ebf6" d="M333.37,312a3,3,0,0,0-2.69,3v2a4.48,4.48,0,0,1-4.48,4.5h-4.54l2.3,6.81s29.22-.05,28.39-9.65C351.7,311.14,339,311.45,333.37,312Z"></path>
  <path fill="#cfd0e2" d="M321.84,331.19l-4.3-12.72h8.65a1.55,1.55,0,0,0,1.09-.46,1.52,1.52,0,0,0,.45-1.09v-2a5.89,5.89,0,0,1,5.38-5.9h0c6.21-.57,14.54-.45,19,3.32a8.62,8.62,0,0,1,3.14,6,7.43,7.43,0,0,1-2.05,5.79C347,331,326.3,331.18,324,331.19Zm3.93-6.82.3.87c8-.24,19.69-1.72,22.81-5.13a1.52,1.52,0,0,0,.52-1.27,2.67,2.67,0,0,0-1-2c-2.24-1.87-7.74-2.61-14.72-2h0v2a7.44,7.44,0,0,1-7.44,7.46Z"></path>
  <path fill="#e6ebf6" d="M178.33,312a3,3,0,0,1,2.69,3v2a4.5,4.5,0,0,0,4.49,4.5h4.54l-2.3,6.81s-29.23-.05-28.39-9.65C160,311.14,172.67,311.45,178.33,312Z"></path>
  <path fill="#cfd0e2" d="M189.87,331.19h-2.13c-2.33,0-23-.24-29.28-7.08a7.5,7.5,0,0,1-2.05-5.79,8.66,8.66,0,0,1,3.14-6c4.51-3.77,12.84-3.89,19-3.32h0a5.88,5.88,0,0,1,5.38,5.9v2a1.52,1.52,0,0,0,.45,1.09,1.56,1.56,0,0,0,1.08.46h8.66Zm-16.5-16.51c-4.71,0-8.32.77-10,2.2a2.68,2.68,0,0,0-1,2,1.55,1.55,0,0,0,.52,1.27c3.12,3.41,14.85,4.89,22.82,5.13l.29-.87h-.43a7.44,7.44,0,0,1-7.43-7.47v-2l.26-3-.27,3C176.41,314.76,174.84,314.68,173.37,314.68Z"></path>
  <path fill="#e0f2ff" d="M339.39,366.78a108.63,108.63,0,0,1-3.45,22.72,11.69,11.69,0,0,1-11.3,8.67l-68.64.09h-.16l-68.68.12a11.62,11.62,0,0,1-11.3-8.6,108.52,108.52,0,0,1-3.56-23.49c-.14-3.74-.05-7,.12-9.75a35.26,35.26,0,0,1,4.19-14.44L185.23,326s15.22-35.05,21.67-37.87c3.13-1.38,14.62-2.29,25.72-2.86s21.71-.83,23-.86h.15c2.66.05,42.51.84,48.75,3.52,6.46,2.84,21.8,37.83,21.8,37.83L335,341.82a35.34,35.34,0,0,1,4.22,14.47A89.75,89.75,0,0,1,339.39,366.78Z"></path>
  <path fill="#d5e5ef" d="M339.38,366.78a107.4,107.4,0,0,1-3.45,22.73,11.67,11.67,0,0,1-11.28,8.66l-68.66.08h-.15l-68.68.14a11.61,11.61,0,0,1-11.29-8.6,107.46,107.46,0,0,1-3.57-23.49c-.14-3.75,0-7,.12-9.76,0-.7.11-1.4.21-2.11a107.86,107.86,0,0,0,3.43,21.15,11.62,11.62,0,0,0,11.3,8.61l68.69-.12h.14l68.65-.1a11.66,11.66,0,0,0,11.3-8.66,112.09,112.09,0,0,0,3.16-18.18A91.45,91.45,0,0,1,339.38,366.78Z"></path>
  <path fill="#cfd0e2" d="M187.12,401.34A14.53,14.53,0,0,1,173,390.52a110.32,110.32,0,0,1-3.65-24.12,99,99,0,0,1,.12-10A38.47,38.47,0,0,1,174,340.7l8.57-16c3.74-8.6,16.2-36.25,23.15-39.29,1.1-.48,4.46-2,26.75-3.1,10.22-.53,20.23-.8,23.06-.87h.26c10.14.19,43.55,1,49.92,3.77,7,3.06,19.52,30.66,23.29,39.24l8.62,16a38,38,0,0,1,4.57,15.69,91.46,91.46,0,0,1,.15,10.79h0a111.91,111.91,0,0,1-3.54,23.35,14.63,14.63,0,0,1-14.15,10.87l-137.49.22Zm68.62-114c-2.87.07-12.82.34-23,.86-19.68,1-23.86,2.26-24.68,2.62-3.35,1.52-13.07,20-20.14,36.34l-.11.22-8.63,16.11a32.54,32.54,0,0,0-3.84,13.23c-.19,3.18-.23,6.28-.11,9.45A105,105,0,0,0,178.72,389a8.6,8.6,0,0,0,8.43,6.4l137.49-.22a8.69,8.69,0,0,0,8.43-6.45,105.27,105.27,0,0,0,3.36-22.1h0a86.84,86.84,0,0,0-.14-10.13,32.32,32.32,0,0,0-3.87-13.3l-8.79-16.28c-7.14-16.29-16.93-34.8-20.28-36.31C299.56,289,276.53,287.75,255.74,287.35Z"></path>
  <path fill="#e6ebf6" d="M314.13,323.3l-58,.09H256l-16.06,0-7.53,0h-4.76l-3.94,0h0l-25.74,0,12.22-27.19a4,4,0,0,1,3.57-2.37l31.1-.87h0l4-.12,4.85-.14,2.32-.06H256l5.12.12,37.1.92a4,4,0,0,1,3.57,2.38Z"></path>
  <path fill="#f0f5f9" d="M285.23,351.94c-8.07.29-17.45.55-27.91.69-11.7-.26-22-.65-30.72-1.06a7.85,7.85,0,0,0-.78,15.69c8.9.47,18.08.92,25.32,1.29,5.12.26,10.23.27,15.36.05s12.07-.53,19.36-.87a7.85,7.85,0,0,0,7.49-7.81v-.09A7.84,7.84,0,0,0,285.23,351.94Z"></path>
  <path fill="#cfd0e2" d="M259.37,371.71c-2.8,0-5.6-.07-8.38-.21l-6.06-.3-19.26-1a10.82,10.82,0,0,1-6.88-18.64,10.66,10.66,0,0,1,7.94-3c9.94.47,20.26.82,30.66,1.06,9.28-.13,18.64-.36,27.73-.69h0a10.85,10.85,0,0,1,.87,21.69c-7.28.34-14.29.65-19.36.87C264.22,371.66,261.79,371.71,259.37,371.71Zm-33.15-17.19a4.82,4.82,0,0,0-3.35,1.34,4.9,4.9,0,0,0,3.11,8.45l19.25,1,6.06.3c5,.26,10.08.28,15.08.05s12.07-.53,19.35-.87a5,5,0,0,0,3.19-8.5,5,5,0,0,0-3.58-1.37c-9.13.33-18.54.56-28,.69-10.55-.23-20.92-.59-30.91-1.06Z"></path>
  <path fill="#fffad9" d="M324.21,348.91,308.06,350a6.15,6.15,0,0,0-5.71,6.1l0,6.12a6.12,6.12,0,0,0,6.79,6.14c5.92-.67,14.42-2.81,20.14-9.28A6.15,6.15,0,0,0,324.21,348.91Z"></path>
  <path fill="#cfd0e2" d="M308.43,371.39a9.08,9.08,0,0,1-9.06-9.15l0-6.12a9.14,9.14,0,0,1,8.47-9L324,346a9.11,9.11,0,0,1,7.47,15.11c-6.3,7.12-15.46,9.51-22,10.26A8.72,8.72,0,0,1,308.43,371.39Zm16-19.53L308.27,353a3.19,3.19,0,0,0-3,3.17l0,6.12a3.21,3.21,0,0,0,1.07,2.41,3.1,3.1,0,0,0,2.43.78c5.53-.64,13.2-2.59,18.26-8.31a3.11,3.11,0,0,0,.46-3.51,3,3,0,0,0-3.08-1.78Z"></path>
  <path fill="#fffad9" d="M187.62,348.32l16.13,1.26a6.14,6.14,0,0,1,5.66,6.15l0,6.12a6.12,6.12,0,0,1-6.84,6.08c-5.92-.72-14.4-2.94-20.06-9.45A6.15,6.15,0,0,1,187.62,348.32Z"></path>
  <path fill="#cfd0e2" d="M203.28,370.94a8,8,0,0,1-1.09-.07c-6.56-.81-15.69-3.27-21.94-10.45a9.11,9.11,0,0,1,7.6-15.05L204,346.63a9.15,9.15,0,0,1,8.39,9.12l0,6.12a9.09,9.09,0,0,1-9.06,9.07ZM187.1,351.25a3.21,3.21,0,0,0-2.38,5.29c5,5.76,12.66,7.78,18.19,8.46a3.08,3.08,0,0,0,2.43-.76,3.19,3.19,0,0,0,1.09-2.4l0-6.12a3.19,3.19,0,0,0-2.94-3.19l-16.13-1.26Z"></path>
  <path fill="#ffdee6" d="M316.52,375.41a7.56,7.56,0,1,0,7.56,7.56A7.57,7.57,0,0,0,316.52,375.41Z"></path>
  <path fill="#cfd0e2" d="M316.52,393.49A10.52,10.52,0,1,1,327,383,10.53,10.53,0,0,1,316.52,393.49Zm0-15.12a4.6,4.6,0,1,0,4.6,4.6A4.61,4.61,0,0,0,316.52,378.37Z"></path>
  <path fill="#ffdee6" d="M195.19,375.41a7.56,7.56,0,1,0,7.55,7.56A7.56,7.56,0,0,0,195.19,375.41Z"></path>
  <path fill="#cfd0e2" d="M195.19,393.49A10.52,10.52,0,1,1,205.7,383,10.53,10.53,0,0,1,195.19,393.49Zm0-15.12a4.6,4.6,0,1,0,4.59,4.6A4.61,4.61,0,0,0,195.19,378.37Z"></path>
  <rect width="54.16" height="10.22" x="228.77" y="380.3" fill="#d9e2e9"></rect>
  <path fill="#cfd0e2" d="M282.93 393.49H228.77a3 3 0 01-3-3V380.3a3 3 0 013-2.95h54.16a3 3 0 013 2.95v10.23A3 3 0 01282.93 393.49zm-51.2-5.92H280v-4.31H231.73zM197.91 326.45a3 3 0 01-2.7-4.17l12.22-27.19a7 7 0 016.18-4.12l42.28-1.19h.22l42.22 1.05a7 7 0 016.18 4.1l12.32 27.15a3 3 0 01-2.69 4.18l-116.23.19zM256 295.7l-42.19 1.18a1.09 1.09 0 00-.94.63l-10.35 23 107.07-.18-10.42-23h0a1.08 1.08 0 00-.95-.63z"></path>
  <rect width="110.55" height="56.14" x="200.32" y="147.5" fill="#e6ebf6"></rect>
  <path fill="#cfd0e2" d="M310.87,206.59H200.32a3,3,0,0,1-3-3V147.5a3,3,0,0,1,3-3H310.87a3,3,0,0,1,3,3v56.14A3,3,0,0,1,310.87,206.59Zm-107.59-5.91H307.92V150.45H203.28Z"></path>
  <path fill="#cfd0e2" d="M238 172.07a2 2 0 01-1.86-1.33l-2.81-8.12-2.43 8a2 2 0 01-1.88 1.4h0a2 2 0 01-1.88-1.39l-4.3-13.87a2 2 0 013.77-1.17l2.39 7.72 2.33-7.71a2 2 0 011.84-1.4 2 2 0 011.91 1.33l2.68 7.77 2-7.63a2 2 0 013.81 1l-3.68 13.87a2 2 0 01-1.84 1.47zM251.3 173c-3.8 0-6.77-4.24-6.77-9.66s3-9.65 6.77-9.65 6.77 4.24 6.77 9.65S255.1 173 251.3 173zm0-15.37c-1.31 0-2.83 2.5-2.83 5.71s1.52 5.72 2.83 5.72 2.83-2.5 2.83-5.72S252.61 157.66 251.3 157.66zM262.38 173a2 2 0 01-2-2V155.69a2 2 0 012-2h5.43a5.71 5.71 0 010 11.41h-3.46v5.93A2 2 0 01262.38 173zm2-11.84h3.46a1.77 1.77 0 000-3.53h-3.46z"></path>
  <path fill="#cfd0e2" d="M270.42 173a2 2 0 01-1.6-.82l-5.67-7.9a2 2 0 113.2-2.3l5.67 7.9a2 2 0 01-1.6 3.12zM278.45 173a2 2 0 01-2-2V155.69a2 2 0 013.95 0v15.37A2 2 0 01278.45 173z"></path>
  <path fill="#cfd0e2" d="M278.45,166.35a2,2,0,0,1-1.4-3.35l8-8.16a2,2,0,0,1,2.79,0,2,2,0,0,1,0,2.78l-8,8.16A1.92,1.92,0,0,1,278.45,166.35Z"></path>
  <path fill="#cfd0e2" d="M286.45 173a1.94 1.94 0 01-1.6-.82l-6.15-8.56a2 2 0 113.2-2.3l6.15 8.56a2 2 0 01-1.6 3.12zM272.39 197.42a2 2 0 01-2-2v-16.7a2 2 0 012-2h5.88a6 6 0 110 12.06h-3.91v6.61A2 2 0 01272.39 197.42zm2-12.53h3.91a2.09 2.09 0 100-4.17h-3.91zM232.86 189.07a6 6 0 115.78-7.4 2 2 0 01-3.82 1 2 2 0 10-2 2.51 2 2 0 110 3.94z"></path>
  <path fill="#cfd0e2" d="M232.86 197.05a6 6 0 01-5.59-3.86A2 2 0 01231 191.8a2 2 0 001.9 1.31 2 2 0 000-4 2 2 0 110-3.94 6 6 0 010 11.92zM243.26 197.05a2 2 0 01-2-2v-16a2 2 0 113.94 0v16A2 2 0 01243.26 197.05zM251.34 197.05a2 2 0 01-2-2v-16a2 2 0 113.94 0v16A2 2 0 01251.34 197.05z"></path>
  <path fill="#cfd0e2" d="M251.34 189.07h-8.08a2 2 0 110-3.94h8.08a2 2 0 010 3.94zM261.86 197.39c-3.79 0-6.75-4.52-6.75-10.29s3-10.3 6.75-10.3 6.75 4.52 6.75 10.3S265.65 197.39 261.86 197.39zm0-16.65c-1.12 0-2.81 2.54-2.81 6.36s1.69 6.35 2.81 6.35 2.81-2.53 2.81-6.35S263 180.74 261.86 180.74z"></path>
  <rect width="256.54" height="5.91" x="127.58" y="416.87" fill="#cfd0e2"></rect>
  <path fill="#bec5dd" d="M84.05,163.55,40,140.07A7.47,7.47,0,0,0,29,147.48c2.16,18.86,12.53,53.43,49.68,68.52l34.56-63.8Z"></path>
  <path fill="#494970" d="M80.5,221l-3.27-1.32c-42.71-17.35-50.69-59.29-52.12-71.73a11.42,11.42,0,0,1,16.72-11.34L84.3,159.22l37.55-14.58Zm-44-77.85a3.51,3.51,0,0,0-2,.63A3.4,3.4,0,0,0,32.94,147c1.62,14.12,9.16,48,44,63.92l27.73-51.19-20.9,8.12L38.12,143.55A3.6,3.6,0,0,0,36.45,143.13Z"></path>
  <path fill="#bec5dd" d="M207,133.91c-4.21-43.68-33-65-64.78-74.11-3.3-1-6.67-1.79-10-2.48-23-4.72-44.5,3.51-56.89,10a7.48,7.48,0,0,0-.47,13l38.62,24.19,1.74,42-42,73.6a3.38,3.38,0,0,0,3.41,5c15.13-2,52.06-4.67,81,12.59A73.18,73.18,0,0,1,177,254.06c12.94,15.6,40.88,50,71.19,87.46l0,0c7.1,8.74,14.28,17.61,21.43,26.45,11.48,14.15,22.84,28.24,33.5,41.4,7.21,9,14.12,17.49,20.49,25.38a57.31,57.31,0,1,0,86.45-75.15c-1.33-1.42-2.77-2.79-4.27-4.1L289.68,254.62l-32.33-28.09-13.87-12.06a96.18,96.18,0,0,1-7-8.34C226.76,193.56,210.22,167.63,207,133.91ZM381.69,413.09a21.8,21.8,0,1,1,1-30.78A21.79,21.79,0,0,1,381.69,413.09Z"></path>
  <g opacity=".5">
    <path fill="#e6ebf6" d="M207 133.91c3.24 33.72 19.78 59.65 29.45 72.22l2.39 27.67 6.91 79.38 0 0 2.4 28.31C217.85 304 189.91 269.66 177 254.06a73.18 73.18 0 00-19.34-16.39L142.2 59.8C174 68.87 202.77 90.23 207 133.91zM289.68 254.62l1.94 22.48 9.07 104 2.43 28.28c-10.66-13.16-22-27.25-33.5-41.4l-2.45-28.31L259.3 248.9l-1.95-22.37z"></path>
  </g>
  <polygon fill="#7b8dba" points="151.58 137.74 123.38 189.69 163.2 211.29 192.01 159.61 151.58 137.74"></polygon>
  <polygon fill="#bec5dd" points="158.28 141.38 186.45 156.6 158.01 208.47 129.8 193.34 158.28 141.38"></polygon>
  <polygon fill="#939fc6" points="140.45 173.91 159.57 205.61 158.01 208.47 146.98 202.76 135.26 183.37 140.45 173.91"></polygon>
  <polygon fill="#939fc6" points="151.06 154.56 170.19 186.26 165.01 195.69 145.88 164 151.06 154.56"></polygon>
  <polygon fill="#939fc6" points="158.28 141.38 168.92 147.21 180.8 166.89 175.63 176.33 156.49 144.64 158.28 141.38"></polygon>
  <path fill="#939fc6" d="M391.67,367.84l-99.72-87-32.32-28.15L254.17,248a22.38,22.38,0,0,0-31,1.54,3.74,3.74,0,0,1-.44.46,22.33,22.33,0,0,0-1,29.4c7.05,8.68,15.07,18.5,23.6,29,6.85,8.47,14.06,17.37,21.4,26.42,11.12,13.77,22.6,27.92,33.53,41.48,13,16.11,25.39,31.43,35.81,44.34a39.53,39.53,0,0,0,28.26,14.77,38.47,38.47,0,0,0,27.34-67.51Zm-10,45.25a21.8,21.8,0,1,1,1-30.78A21.79,21.79,0,0,1,381.69,413.09Z"></path>
  <path fill="#7b8dba" d="M391.64,367.84l-99.72-87L259.6,252.73,254.14,248a22.39,22.39,0,0,0-31,1.53,2.73,2.73,0,0,1-.44.47A22.33,22.33,0,0,0,218.48,274a22.68,22.68,0,0,1,5.08-8.68,3.14,3.14,0,0,0,.44-.46,22.39,22.39,0,0,1,31-1.53l5.46,4.78,32.32,28.14,99.72,87a38.16,38.16,0,0,1,12.06,19.42A38.37,38.37,0,0,0,391.64,367.84Z"></path>
  <path fill="#494970" d="M368.17,460c-1.4,0-2.79,0-4.19-.14a61.46,61.46,0,0,1-43.44-22.63l-6.9-8.54c-4.36-5.4-8.92-11-13.59-16.85l-13.69-16.92c-6.48-8-13.12-16.23-19.8-24.46-7.12-8.81-14.27-17.65-21.34-26.34l-.12-.14c-33.48-41.41-59.42-73.27-71.16-87.42a69.63,69.63,0,0,0-18.32-15.51c-27.88-16.62-64.18-14-78.5-12.08a7.31,7.31,0,0,1-7.35-10.88l41.39-72.62-1.6-38.83L72.7,83.57a11.42,11.42,0,0,1,.74-19.79c14.17-7.38,36-15.16,59.51-10.33,3.79.79,7.18,1.63,10.37,2.57,28.18,8,62.81,28,67.58,77.51h0c3.15,32.76,19.3,58,28.65,70.19a99,99,0,0,0,6.64,7.87l162.18,141a62.72,62.72,0,0,1,4.57,4.37,61.25,61.25,0,0,1-2.83,86.53A61.48,61.48,0,0,1,368.17,460Zm-117-121.08.1.12c7.1,8.73,14.28,17.61,21.44,26.45C279.37,373.74,286,382,292.49,390l13.7,16.93c4.68,5.82,9.23,11.45,13.58,16.84l6.9,8.55a53.37,53.37,0,1,0,80.51-70,54.83,54.83,0,0,0-4-3.83L240.69,217.25a96.71,96.71,0,0,1-7.39-8.72c-9.86-12.82-26.91-39.51-30.25-74.24h0C198.71,89.23,167,71,141.12,63.59c-3-.89-6.2-1.67-9.77-2.41-22.35-4.6-43.59,4-54.27,9.59a3.42,3.42,0,0,0-1.85,3,3.47,3.47,0,0,0,1.66,3.16l40.38,25.29,1.87,45.25-42,73.6c15.87-2,53.19-4.19,82.47,13.26A77.2,77.2,0,0,1,180,251.55C191.76,265.71,217.69,297.56,251.15,338.94ZM76.06,221.18Zm290.7,201.75a25.73,25.73,0,1,1,17.62-7h0A25.65,25.65,0,0,1,366.76,422.93Zm0-43.57A17.84,17.84,0,1,0,379.8,385,17.74,17.74,0,0,0,366.75,379.36Z"></path>
</svg>
