<!-- icon666.com - MILLIONS OF FREE VECTOR ICONS --><svg id="Layer_1" enable-background="new 0 0 3146.1 4500" viewBox="0 0 3146.1 4500" xmlns="http://www.w3.org/2000/svg"><g><path d="m1568.7 0h1.3 1.3z" fill="#5ca900"></path><path d="m2669.7 727.2c-291.6-419.9-355.9-587.7-445.1-483.2s-127.8 225.5-127.8 225.5-47.7-133.4-260.2-266.4c-205.7-128.8-216.2-201.9-266.6-203.1-50.5 1.3-60.8 74.5-266.1 203.9-212.1 133.7-259.4 267.2-259.4 267.2s-39-120.9-128.5-225.1-153.3 63.7-443.6 484.5c-270.7 392.4-475.6 778.7-472.4 1350.3s256.2 941.9 256.2 941.9-59.6 469.8 225.5 822.1c322.8 398.7 819.3 406.2 819.3 406.2l550.5-.8s496.5-8.9 818-408.7c284.1-353.1 223.1-822.7 223.1-822.7s251.9-371 253.4-942.6c1.6-571.7-204.4-957.4-476.3-1349z" fill="#5ca900"></path><path d="m67.1 2222.7s-1.5-72.5 218 91.1c-68.8-306.1-28.2-634.2 34.8-911.8 0 0 54.5 315.1 143.9 464.5-8.8-373.9 29.8-701 148.8-1009.8 4.6 492.5 54.4 591.6 54.4 591.6s112.2-710 192.9-886.6c54.4 228.3 111.3 378.4 111.3 378.4l-511.8 1636.2s-40.7-22.2-90-45.8c-98.6-47.4-249.4-135.4-302.3-307.8z" fill="#3a8e00"></path><path d="m3071 2218.3s1.3-72.5-217.7 91.7c67.9-306.3 26.3-634.3-37.5-911.7 0 0-53.5 315.3-142.6 465 7.7-373.9-31.9-700.9-151.8-1009.4-3.1 492.5-52.7 591.8-52.7 591.8s-114.3-709.6-195.5-886c-53.7 228.5-110.1 378.7-110.1 378.7l516.6 1634.6s40.6-22.3 89.9-46.1c98.4-47.6 249-136.1 301.4-308.6z" fill="#3a8e00"></path><path d="m1568.7 0h1.3 1.3z" fill="#5ca900"></path><path d="m0 2080.8c3.2 571.6 256.2 941.9 256.2 941.9s-59.6 469.8 225.5 822.1c322.8 398.7 819.3 406.2 819.3 406.2l550.5-.8s496.5-8.9 818-408.7c284.1-353.1 223.1-822.7 223.1-822.7s251.9-371 253.4-942.6c-29 194.1-82.2 423.2-182.8 681.5-138-349.4-137.3-212.8-161.5 238.7-7.4 258.1-65.4 466.3-170.2 623.9-70 105.3 28.2-309.3 28.2-309.3s-285.3 562.9-555.4 707.3c-44.3 23.7-83.3 41.6-132.4 49.7-72.5 12 218.5-303.3 413-688.7-214.5 212.9-315.7 281.6-436 390-99.1 89.4-167.1-198.5-240.4-242.2 51 297.8 42.8 456.7-38.9 514.9-29.4 21-68.9 38.9-93.7 38.9-42.2.1-186.9-174.4-371.3-333.9-156.9-135.7-349.4-246.7-458.7-379.7 215.3 379.5 429.8 707.4 351.2 682.9-95.7-29.8-282-180.5-620.4-787.7 8.7 216.4 120.5 495 37.8 369.9-103.1-156-169.7-356-180-609.3-12.3-302.8 4-767.1-134.5-247-74.1-86.2-152.8-379.3-200-695.3z" fill="#3a8e00"></path><path d="m363.1 2538c-1.6 0-3.2-.3-4.7-1.1-21.3-10.2-76.9-38.7-133.8-82.9-70.2-54.5-118.2-113.5-142.7-175.4-2.2-5.5.5-11.8 6-14s11.8.5 14 6c23.1 58.3 68.9 114.3 135.9 166.3 55.2 42.9 109.2 70.6 129.9 80.5 5.4 2.6 7.6 9 5 14.3-1.7 4.1-5.6 6.3-9.6 6.3z" fill="#360"></path><path d="m285.3 2491.8c-3.4 0-6.8-1.6-8.9-4.6-2.4-3.5-60.2-88.2-105-276.3-26.2-110-42.4-232.8-48.2-364.9-7.2-164.9 1.8-345.1 26.9-535.4.8-5.9 6.2-10 12.1-9.3 5.9.8 10 6.2 9.3 12.1-24.9 188.6-33.9 367-26.8 530.3 5.7 130.6 21.6 251.9 47.3 360.5 22.9 96.6 49.4 165.1 67.7 205.5 19.8 43.8 34.3 65 34.5 65.2 3.4 4.9 2.2 11.6-2.7 15-2 1.3-4.1 1.9-6.2 1.9z" fill="#360"></path><path d="m362.2 1893c-4.9 0-9.4-3.4-10.5-8.4-.3-1.2-27-123-37.7-304.9-6.3-106.8-5.8-213.2 1.2-316.2 8.9-128.9 28.2-252.9 57.5-368.5 1.5-5.8 7.3-9.2 13.1-7.8 5.8 1.5 9.2 7.3 7.8 13.1-29 114.4-48.2 237.1-56.9 364.7-7 102.1-7.4 207.6-1.2 313.5 10.6 180.2 36.9 300.3 37.2 301.5 1.3 5.8-2.4 11.5-8.2 12.8-.8.1-1.6.2-2.3.2z" fill="#360"></path><path d="m527.9 1676c-5.9 0-10.7-4.7-10.8-10.6-3.2-311.4 33.7-619 109.9-914.2 61.2-237.2 131.6-403 168.1-480.8 2.5-5.4 8.9-7.7 14.3-5.2s7.7 8.9 5.2 14.3c-36.2 77.1-106.1 241.5-166.8 477-75.6 293.4-112.4 599.1-109.2 908.6.1 6-4.7 10.8-10.7 10.9z" fill="#360"></path><path d="m807.7 1078.5c-4.6 0-8.9-3-10.3-7.6-2.7-9-4.5-90.1 4.6-199.8 8.5-103.6 29.2-263.3 79.2-435.3 1.7-5.7 7.6-9 13.3-7.3s9 7.6 7.3 13.3c-49 168.4-69.5 324.9-78.1 426.5-9.7 115.1-7 188.9-5.7 196.8 1.4 5.5-1.8 11.3-7.3 13-.9.3-2 .4-3 .4zm10.3-13.8c0 .1.1.2.1.3-.1-.1-.1-.3-.1-.3z" fill="#360"></path><path d="m1059.5 551.1c-5.3 0-9.9-3.9-10.7-9.3l-7.5-56.7c-.8-5.9 3.4-11.3 9.2-12.1 5.9-.8 11.3 3.4 12.1 9.2l7.5 56.7c.8 5.9-3.4 11.3-9.2 12.1-.5.1-.9.1-1.4.1z" fill="#360"></path><path d="m2784.4 2534.4c-4.2 0-8.2-2.5-9.9-6.5-2.3-5.5.2-11.8 5.7-14.1.1 0 6.6-2.8 17.4-8.2 24.9-12.4 74.1-39.2 123.4-79.6 59.8-49.1 101.5-102.8 123.8-159.6 2.2-5.5 8.4-8.2 13.9-6.1 5.5 2.2 8.2 8.4 6.1 13.9-23.7 60.3-67.5 116.9-130.2 168.3-51 41.8-101.7 69.5-127.4 82.3-11.5 5.7-18.3 8.6-18.6 8.7-1.4.7-2.8.9-4.2.9z" fill="#360"></path><path d="m2862 2488c-5.4 0-10.1-4.1-10.7-9.6-.4-3.6.9-5.8 2.3-8.2 14.9-25.2 66.4-121.2 104.4-296.3 23.6-108.8 37.9-228.7 42.4-356.3 5.6-157.9-3.8-328.7-28-507.5-.8-5.9 3.3-11.3 9.2-12.1s11.3 3.3 12.1 9.2c24.3 180 33.8 352 28.1 511.1-4.5 128.9-19 250-42.8 360.1-37.6 173.4-87.3 269.4-106.9 302.7-.2.4-.4.7-.5.9-1.6 3.2-4.7 5.5-8.5 5.9-.3 0-.7.1-1.1.1z" fill="#360"></path><path d="m2783.4 1889.4c-.8 0-1.5-.1-2.3-.3-5.8-1.3-9.5-7-8.2-12.8.3-1.2 26.8-124 36.6-307 5.7-107.4 4.7-214.3-3.2-317.7-9.8-129.1-30.3-253.1-60.8-368.4-1.5-5.7 1.9-11.6 7.6-13.1s11.6 1.9 13.1 7.6c30.9 116.7 51.6 242.1 61.5 372.6 7.9 104.4 9 212.2 3.1 320.7-9.9 184.7-36.8 308.8-37 310-1 4.9-5.5 8.3-10.4 8.4z" fill="#360"></path><path d="m2617 1672.9c-6 0-10.8-4.9-10.8-10.8 2.2-302.8-33.8-602.2-107.1-889.9-60.2-236-130.6-403.9-167.3-482.9-2.5-5.4-.2-11.8 5.2-14.3s11.8-.2 14.3 5.2c37 79.7 108 248.9 168.6 486.6 73.8 289.4 110 590.7 107.8 895.4 0 5.9-4.8 10.7-10.7 10.7z" fill="#360"></path><path d="m2335.5 1076.3c-1 0-2.1-.1-3.1-.5-5.5-1.7-8.7-7.4-7.3-12.9 3.2-18.5 7.8-305.4-85.6-623.1-1.7-5.7 1.6-11.7 7.3-13.3 5.7-1.7 11.7 1.6 13.3 7.3 50.5 171.9 71.7 331.4 80.5 435 9.4 109.7 7.8 190.8 5.1 199.8-1.4 4.6-5.6 7.6-10.2 7.7zm-10.4-13.9c0 .1-.1.2-.1.3.1-.1.1-.2.1-.3z" fill="#360"></path><path d="m2082.1 549.6c-.7 0-1.5-.1-2.3-.2-5.8-1.2-9.5-7-8.3-12.8l11.2-52.4c1.2-5.8 6.9-9.5 12.8-8.3 5.8 1.2 9.5 7 8.3 12.8l-11.2 52.4c-1.1 5-5.6 8.5-10.5 8.5z" fill="#360"></path><path d="m2700.8 2254.2c20.2-349.4-140.5-475.3-140.5-475.3s20.1-314.4-133.2-426.1c48.4-85.4-17.5-254.1-128.1-304 31.5-132.2-23.8-261.5-139.5-298.5 39.7-118.4-52.6-222.9-153.2-244.8 6.7-141.8-106.3-232.5-242.6-219.9-20.6-54.8-99.7-72.6-193.5-72.7-93.8.3-172.8 18.4-193.3 73.2-136.3-12.2-249 78.8-241.9 220.6-100.4 22.3-192.5 127-152.4 245.3-115.5 37.4-170.4 166.9-138.6 299-110.4 50.3-159.5 209.4-132.9 328.5-244.7 149.3-171.8 476.4-171.8 476.4s-166.2 167-78.8 431.9c-72.2 79.8-97.5 183-97.4 239.5 308.6 152.5 576.2 328.3 576.2 328.3 397.6 78.9 636.9 456.9 636.9 456.9s235.6-378.7 632.9-458.8c0 0 267-176.6 575.2-330 0-56.5-21-177.3-83.5-269.5z" fill="#ffc800"></path><path d="m1569 213h1.3 1.3z" fill="#ffc800"></path><path d="m258.8 3003.1c-.3 0-.6 0-.9 0-5.9-.5-10.3-5.7-9.8-11.6l26.8-326.1c.5-5.9 5.7-10.3 11.6-9.8s10.3 5.7 9.8 11.6l-26.8 326.1c-.5 5.5-5.2 9.7-10.7 9.8z" fill="#360"></path><path d="m2890.1 2999.1c-5.5 0-10.2-4.2-10.7-9.8l-27.8-326c-.5-5.9 3.9-11.1 9.8-11.6s11.1 3.9 11.6 9.8l27.8 326c.5 5.9-3.9 11.1-9.8 11.6-.3 0-.6 0-.9 0z" fill="#360"></path><g><path d="m1125.7 4222.5c-1.9 0-3.7-.5-5.5-1.5-75.6-44.5-223.6-147-365.8-333.6-79.7-104.6-146.9-221.9-199.6-348.6-62.9-151.1-106.1-317.7-128.5-495.1-.7-5.9 3.4-11.3 9.3-12s11.3 3.4 12 9.3c22.1 175.5 64.9 340.3 127 489.6 52.1 125.1 118.3 240.8 196.9 343.9 140 183.7 285.4 284.4 359.6 328.1 5.1 3 6.8 9.6 3.8 14.7-1.9 3.3-5.5 5.2-9.2 5.2z" fill="#360"></path></g><g><path d="m1429.4 4217.8c-4.3 0-8.3-2.5-10-6.7-.4-.9-22.9-55.6-88.2-149.6-60.5-87.1-171.2-226.6-354.8-397-117.4-108.9-214.2-244.9-279.9-393.1-68.4-154.3-99.6-315.2-90.1-465.1.4-5.9 5.5-10.4 11.4-10.1 5.9.4 10.4 5.5 10.1 11.4-9.2 146.5 21.3 303.9 88.3 455.1 64.5 145.6 159.6 279.1 274.9 386.1 102.4 95 247.7 241.8 358.5 401.4 66.6 96 88.9 150.6 89.8 152.9 2.2 5.5-.5 11.8-6 14-1.3.4-2.6.7-4 .7z" fill="#360"></path></g><g><path d="m1509.2 3864.7c-4.8 0-9.2-3.2-10.4-8.1-140-554.4-449.6-882.4-541.2-969.7-4.3-4.1-4.5-10.9-.4-15.2s10.9-4.5 15.2-.4c92.6 88.3 405.7 420 547.2 980 1.5 5.8-2 11.6-7.8 13.1-.8.2-1.7.3-2.6.3z" fill="#360"></path></g><g><path d="m2036.4 4215.3c-3.6 0-7.2-1.8-9.2-5.2-3.1-5.1-1.5-11.7 3.6-14.8 74.6-45.5 220.3-149.7 358-335.4 76.1-102.7 140.2-217.5 190.5-341.3 59.7-147.1 100.8-308.9 121.9-481.1.7-5.9 6.1-10.1 12-9.4s10.1 6.1 9.4 12c-21.4 174-62.9 337.7-123.4 486.5-51 125.5-115.9 241.9-193.2 346-139.9 188.7-288.2 294.6-364.1 341-1.6 1.2-3.6 1.7-5.5 1.7z" fill="#360"></path></g><g><path d="m1723 4217.3c-1.3 0-2.7-.2-4-.8-5.5-2.2-8.2-8.5-6-14 .9-2.3 23-56.9 89.3-153.1 60.9-88.3 172.3-229.8 357.3-402.5 114.9-107.3 209.6-241.1 273.7-386.9 66.6-151.4 96.6-308.9 87-455.3-.4-5.9 4.1-11 10-11.4s11 4.1 11.4 10c9.9 149.9-20.8 310.9-88.7 465.4-65.3 148.5-161.7 284.7-278.7 394-101.3 94.6-245 240.6-354.3 399-65 94.2-86.9 148.3-87.1 148.9-1.6 4.2-5.6 6.7-9.9 6.7z" fill="#360"></path></g><g><path d="m1940.6 3678.7c-.2 0-.4 0-.6 0-5.9-.3-10.5-5.3-10.2-11.3 10.7-215.1 47.7-403.3 110-559.4 51.8-129.8 108.8-204.7 138.2-237.8 3.9-4.4 10.7-4.8 15.2-.9s4.8 10.7.9 15.2c-66.2 74.6-112.5 177.1-134.3 231.5-61.4 153.9-97.9 339.8-108.5 552.4-.3 5.8-5.1 10.2-10.7 10.3z" fill="#360"></path></g><g><path d="m1820.9 4052.5c-.3 0-.7 0-1 0-5.9-.5-10.3-5.7-9.8-11.7 7.7-86.7-.2-178.5-23.4-272.8-18.6-75.7-47.2-153.2-84.8-230.3-64.2-131.6-133.4-217.6-134.1-218.4-3.7-4.6-3-11.4 1.6-15.1s11.4-3 15.1 1.6c.7.9 71.3 88.4 136.5 222.1 38.3 78.5 67.4 157.5 86.5 234.7 23.9 96.8 32 191 24 280.2-.4 5.5-5.1 9.7-10.6 9.7z" fill="#360"></path></g><path d="m1194 1066.7c-1.3 0-2.5-.3-3.7-.9-35.9-18.6-76.3-30.6-120-35.6-35.1-4-72.4-3.6-110.8 1.3-65.5 8.3-112 26.8-112.5 27-4.1 1.7-8.8-.3-10.5-4.5-1.7-4.1.3-8.8 4.5-10.5 2-.8 48.9-19.4 116.5-28 39.7-5 78.3-5.5 114.7-1.3 45.6 5.2 87.9 17.8 125.5 37.3 4 2 5.5 6.9 3.5 10.9-1.5 2.7-4.3 4.3-7.2 4.3z" fill="#c45a00"></path><path d="m722.8 1384.3c-2.9-.3-5.5-2-6.8-4.7-1.8-4 0-8.5 4.2-10.2 1.8-.7 44.7-17.9 117.1-23 42.4-3 86.1-1.2 130.1 5.4 54.9 8.2 110.1 23.8 164.3 46.4 4.2 1.8 6.1 6.4 4.3 10.3s-6.7 5.7-10.9 3.9c-52.7-22-106.4-37.2-159.6-45.2-42.6-6.4-85-8.2-126-5.4-56 3.9-98.1 16-112.6 21.8-1.3.7-2.7.8-4.1.7z" fill="#c45a00"></path><path d="m1268.3 766.4c-.9 0-1.9-.2-2.9-.5-61.1-23-134-23.4-184.5-19.8-55 4-96 13.7-96.4 13.8-4.3 1-8.7-1.6-9.7-6-1-4.3 1.6-8.7 6-9.7 1.7-.4 42.4-10 98.7-14.2 52.1-3.8 127.7-3.3 191.6 20.7 4.2 1.6 6.3 6.2 4.7 10.4-1.2 3.3-4.3 5.3-7.5 5.3z" fill="#c45a00"></path><path d="m1135.1 514.9c-3.6 0-6.8-2.4-7.8-6-1.2-4.3 1.4-8.7 5.7-9.9 3.9-1.1 97.1-25.7 174.4-1.3 4.2 1.3 6.6 5.9 5.3 10.1s-5.9 6.6-10.1 5.3c-72.7-22.9-164.4 1.3-165.3 1.5-.8.2-1.5.3-2.2.3z" fill="#c45a00"></path><path d="m1361.3 471.6c-3.5 0-6.7-2.2-7.7-5.7-24.5-80.6 14.2-178.6 15.9-182.7s6.4-6.1 10.5-4.5c4.1 1.7 6.1 6.4 4.5 10.5-.4 1-38.3 96.9-15.4 172 1.3 4.3-1.1 8.8-5.4 10.1-.8.2-1.6.3-2.4.3z" fill="#c45a00"></path><path d="m2299 1056.9c-1.6 0-3.3-.5-4.7-1.5-.4-.3-19-13.2-62.2-22.8-72.9-16.2-158.6-10.7-217.7-3.2-4.4.6-8.5-2.6-9-7-.6-4.4 2.6-8.5 7-9 212-26.8 288.2 26.7 291.3 29 3.6 2.6 4.4 7.7 1.8 11.3-1.5 2-4 3.1-6.5 3.2z" fill="#c45a00"></path><path d="m2060.4 1412.5c-3.3.4-6.6-1.1-8.3-4.1-2.2-3.9-.7-8.8 3.3-11 47.2-25.2 95.2-43.6 142.6-54.6 38.1-8.8 75.9-12.9 112.4-12.2 62.5 1.2 99.3 16.1 100.9 16.7 4.2 1.7 6.1 6.4 4.4 10.6-1.8 4.1-6.6 6-10.8 4.3-12.2-5-48-14.6-95.8-15.5-55.1-1-142.4 9.5-245.8 64.8-.9.6-1.9.9-2.9 1z" fill="#c45a00"></path><path d="m2159.6 758.4c-1.1 0-2.1-.2-3.1-.6-.2-.1-23.7-9.9-64.1-16.7-37.3-6.3-97-11.3-169.9.5-4.4.7-8.5-2.3-9.2-6.7s2.3-8.5 6.7-9.2c75.4-12.2 137.3-6.9 175.8-.3 42.1 7.2 66 17.2 67 17.6 4.1 1.7 6 6.5 4.3 10.6-1.4 2.9-4.4 4.8-7.5 4.8z" fill="#c45a00"></path><path d="m2006.4 513.6c-.5 0-1.1-.1-1.6-.2s-55.6-11.3-117.6-10.3c-4.5.1-8.1-3.5-8.2-7.9-.1-4.5 3.5-8.1 7.9-8.2 63.9-1.1 118.8 10.1 121.1 10.6 4.4.9 7.2 5.2 6.3 9.5-.8 3.8-4.1 6.5-7.9 6.5z" fill="#c45a00"></path><path d="m1780 471c-.8 0-1.6-.1-2.3-.3-4.3-1.3-6.7-5.8-5.4-10 22.6-75.1-15.6-171-15.9-172-1.7-4.1.3-8.8 4.4-10.5s8.8.3 10.5 4.4 40.7 102 16.4 182.7c-1 3.4-4.2 5.7-7.7 5.7z" fill="#c45a00"></path><path d="m1633.2 788.6c-2 0-4.1-.8-5.7-2.3-3.2-3.1-3.2-8.2-.1-11.4.4-.4 38.7-41.5 38.5-154.5-.1-65.3-13.7-106.3-42.7-129.1-25.4-20-64.5-28.5-130.9-28.4-59.9.1-100.8 3.3-132.7 19.7-31.7 16.3-55.5 46.3-79.4 100.5-46.6 105.6-2 150.1-1.6 150.6 3.2 3.1 3.3 8.2.2 11.4s-8.2 3.3-11.4.2c-2.2-2.1-53.2-52.9-2-168.7 25.5-57.9 51.5-90.3 86.8-108.4 34.8-17.8 77.7-21.4 140-21.5 71.2-.1 112.1 9.1 140.9 31.8 33.2 26.1 48.7 71.2 48.8 141.8.2 120.5-41.4 164.1-43.2 165.9-1.3 1.6-3.4 2.4-5.5 2.4z" fill="#c45a00"></path><path d="m1933.2 739.8c-3.1 0-6.1-1.8-7.4-4.9-1.8-4.1.1-8.8 4.2-10.6.3-.1 8.8-4.2 16.5-17 7.3-12.2 15.1-34.8 10.7-73.5-7.3-64.6-33.8-109.9-78.6-134.6-40.5-22.3-89.2-23.8-123-21.1-30.7 2.4-52.9 12.2-66.1 28.9-17.2 22-13 48.8-13 49.1.7 4.4-2.2 8.5-6.6 9.3-4.4.7-8.5-2.3-9.3-6.6-.2-1.4-5.3-34.1 16.2-61.6 16-20.5 42.1-32.3 77.5-35.1 52.3-4.1 96.7 3.6 132 23 49.7 27.3 78.9 76.8 86.9 146.9 9.8 86-34.9 106.4-36.8 107.2-1 .4-2.1.6-3.2.6z" fill="#c45a00"></path><path d="m1144.3 1424.1c-2.2 0-4.4-.9-6-2.7-.7-.8-18.3-20.6-28.1-62.9-8.8-38.2-12.8-103.4 18.2-197.1 53.7-162.1 192.1-161.6 303.4-161.2h19.2c14.1 0 47.1-.1 82 7.9 40.6 9.3 73.7 26.9 98.2 52.4 37.1 38.5 54.6 94.6 51.9 166.7-5.8 155.6-63.6 185.7-66 186.9-4 2-8.8.3-10.8-3.7s-.3-8.8 3.7-10.8c0 0 12.8-6.9 26.1-31.3 22.7-41.4 29.3-99.9 30.9-141.7 2.5-67.6-13.4-119.7-47.4-154.9-22.3-23.1-52.7-39.2-90.2-47.9-29.2-6.7-56-7.6-78.4-7.5-6.3 0-12.8 0-19.3 0-53.8-.2-114.7-.4-167 18.5-59.1 21.4-98.7 64.5-121 131.7-56.8 171.4 5.9 243.4 6.5 244.1 3 3.3 2.7 8.4-.6 11.4-1.5 1.4-3.4 2.1-5.3 2.1z" fill="#c45a00"></path><path d="m1613.1 1854.3c-2.3 0-4.6-1-6.2-2.9-2.8-3.4-2.4-8.5 1.1-11.4 31.3-25.9 50.7-69.5 57.8-129.8 6.9-58.6 1.2-124.2-3.7-168.4-8.9-79.5-31.1-121-77-143.2-46.8-22.7-119.7-26.9-238-26.7-59.5.1-110.4 8.6-151.4 25.2-32.4 13.2-58.6 31.4-77.9 54.3-32.9 38.9-34.6 78.3-34.6 78.7-.2 4.4-3.9 7.9-8.3 7.8s-7.9-3.8-7.8-8.3c.1-1.8 1.7-44.7 37.7-87.8 20.9-25.1 49.2-45 84.1-59.3 43-17.6 96.2-26.6 158.2-26.7 50.3-.1 102.8.4 146.4 4.7 42.8 4.2 74.1 11.7 98.7 23.6 51.5 25 76.4 70.1 86 156 5 45 10.8 111.8 3.7 172.1-7.6 64.5-29 111.7-63.5 140.3-1.7 1.1-3.5 1.8-5.3 1.8z" fill="#c45a00"></path><path d="m1622.3 1066c-2.2 0-4.3-.8-5.9-2.5-3-3.2-2.9-8.3.3-11.3.7-.7 37.1-38.9 30.5-174.2-2.6-53.9-14.2-91.2-36.5-117.6-26.7-31.5-69-46.8-129.5-46.7-67.8.1-123.3 1.9-168.5 24-49 23.9-83.2 71.2-107.7 149-11.2 35.6-22.7 86.4-13.5 126 5.3 23.1 15.3 31.4 15.4 31.5l-.1-.1-9.8 12.8c-2.1-1.6-50-40.1-7.4-175.1 25.9-82.3 62.8-132.7 116-158.6 48.3-23.5 105.6-25.5 175.5-25.6 65.5-.1 111.9 17.1 141.9 52.4 24.7 29.2 37.5 69.6 40.3 127.2 7.1 145-33.7 185.1-35.5 186.7-1.6 1.4-3.5 2.1-5.5 2.1z" fill="#c45a00"></path><path d="m2110.8 1527c-.3 0-.6 0-.8 0-4.4-.5-4.8-1.4-5.9-9.7-.1-.7-1.7-35.8-27.3-66.8-14.8-17.9-36.4-31.9-63.2-42.8-33.5-13.6-75.8-21.8-125.7-24.3-59.5-3-143.4-2.3-204.7 18.1-36.5 12.1-47.7 25.6-47.8 25.7l.1-.1-12.8-9.8c1.9-2.5 49.1-60.9 266.1-50.1 95.6 4.8 163.1 29.4 200.7 73.1 33.2 38.7 29.6 77.8 29.4 79.4-.5 4.2-4 7.3-8.1 7.3z" fill="#c45a00"></path><path d="m2046.1 1422.8c-2 0-3.9-.7-5.5-2.1-3.3-3-3.5-8.1-.5-11.4.2-.2 15.7-17.3 28.5-47.4 11.8-27.6 23.8-72.1 13.9-127.3-10.3-57.1-20.4-103.5-49.2-138.8-31.8-39-84.1-59.8-164.6-65.6-55.1-3.9-131.7-3.1-183.6 23.4-24.3 12.4-35.4 26.9-37.9 32.9-1.6 4.2-6.3 6.2-10.4 4.5-4.1-1.6-6.2-6.3-4.6-10.5 1.3-3.3 33.9-81 237.7-66.4 85.2 6.1 141.1 28.8 175.9 71.4 31.2 38.2 42.3 88.8 52.6 146.1 10.7 59.5-2.4 107.5-15.2 137.2-14 32.4-30.5 50.5-31.2 51.3-1.5 1.8-3.7 2.7-5.9 2.7z" fill="#c45a00"></path><path d="m1981.3 1054.9c-3.3 0-6.5-2.1-7.6-5.4-1.5-4.2.7-8.8 4.9-10.3.9-.3 17.3-6.7 29.7-28.3 16.9-29.6 17.9-73.7 2.8-127.7-11.6-41.5-22.6-80.6-47.6-109.2-26.4-30.1-67.5-46.7-129.4-52-42.9-3.7-102.9-4.4-145.6 13-23.2 9.5-30.3 20.1-30.4 20.2-2.3 3.8-7.2 5.1-11.1 2.8-3.8-2.3-5.1-7.2-2.8-11.1.9-1.5 9.7-15.2 38.1-26.8 36.7-15 88.2-19.7 153.1-14.1 66.3 5.7 110.8 24 140.1 57.4 27.5 31.3 39.4 74.1 51 115.5 16.7 59.8 15.1 107.4-5 141.3-15.6 26.3-36.7 34-37.6 34.3-.8.3-1.7.4-2.6.4z" fill="#c45a00"></path><path d="m1578 4500c-.4 0-.9 0-1.3 0s-.9 0-1.3 0z" fill="#4e8400"></path><path d="m1836.5 4206.4-258.9.4h-2.6l-258.9.4s-138.8 292.8 260.7 292.8c399.4-1.2 259.7-293.6 259.7-293.6z" fill="#367c00"></path><path d="m1576.5 4381.8c-14 0-139.8.2-261.1 20.4 27.9 48.1 108.3 97.5 234.7 97.3l53.2-.1c126.4-.2 206.7-49.8 234.4-98-121.4-19.9-247.2-19.7-261.2-19.6z" fill="#5ca900"></path><g fill="#ffe07d"><path d="m1227.4 362.8c-53.4 41.8-58.3 92.4-25.5 92.5 45.1 0 90.2-43.9 110.2-72.3 22.2-31.4-2.2-84.8-84.7-20.2z"></path><path d="m1574.6 251.2h-2.7c-91.6.1-154.8 29.8-154.9 71.1s69.3 30.9 155 30.8h2.7c85.7-.1 155.1 10.1 154.9-31.3-.1-41.3-63.4-70.8-155-70.6z"></path><path d="m1919.5 361.7c-82.6-64.4-106.9-10.8-84.6 20.4 20.2 28.3 65.3 72.1 110.5 71.9 32.7 0 27.6-50.6-25.9-92.3z"></path><path d="m1199.3 537.1c-67-.6-161.4 32.3-185.5 116.4-27 94.3 34 45.7 63.9 14.2 32.5-34.2 54.1-66.3 125.5-76.2 39.7-5.6 67.6-53.8-3.9-54.4z"></path><path d="m1117.1 779.2c-83.1-7.6-199.4 23.6-232.6 157.3-19.8 79.7 61.4 55.7 86.7 3.7 24.1-49.5 55.7-87.9 145.3-93.1 49.8-2.9 89.3-59.8.6-67.9z"></path><path d="m1059.2 1074.3c-131.8-14.4-252.8 23.4-286.1 157.1-19.8 79.7 55.8 48.8 87.1.2 32.4-50.4 60-90.6 196-89.5 49.9.5 88.1-58.4 3-67.8z"></path><path d="m999.6 1445.2c-81.4-27.7-245.3-52.7-328.6 18.4s-5.8 90.6 69.6 63c75.4-27.5 177.4-27 234.9-11.5 72.2 19.5 84.3-49.4 24.1-69.9z"></path><path d="m959 1858.2c-83.6-19.9-295.6-34.5-406 59.8-83.2 71.2-19.2 113.1 49.5 71.5 89.8-54.4 239.2-71.4 339.1-59.5 74.2 8.9 79.2-57 17.4-71.8z"></path><path d="m921.2 2307.9c-92.9-20.3-327.8-33.5-448.5 67.9-91 76.5-14.8 118.9 61.9 76 98.6-55.3 248.9-63.3 359.8-51.7 82.2 8.5 95.5-77.2 26.8-92.2z"></path><path d="m2006.4 539c55.4 11.7 111 50.9 128.9 112.8 27.3 94.2-33.9 45.8-63.9 14.4-19.2-20-28.1-34.9-58.6-53.9-47.1-29.3-44-81.3-6.4-73.3z"></path><path d="m2064.9 776.8c78.3 4.9 171.2 40.7 200.6 157.6 20 79.6-61.2 55.9-86.7 3.9-19.1-39-43.8-68.3-96.3-85.3-69.3-22.4-81.3-80.2-17.6-76.2z"></path><path d="m2133.5 1069.9c114.7-.2 214.2 40 244.2 159.2 20 79.6-55.7 49-87.1.4-28.6-44.2-53.7-78.2-151.7-87.7-53.2-5.1-84.9-71.8-5.4-71.9z"></path><path d="m2178.5 1404.3c101.8-31.4 209.1-34.7 278.7 29.9 78.4 72.8 4.9 90.6-66.3 61.5-59.8-24.4-107.4-38.1-193.1-22.2-72.5 13.4-111.5-40.8-19.3-69.2z"></path><path d="m2287.9 1832.3c101.8-31.4 209.1-34.7 278.7 29.9 78.4 72.8 4.9 90.6-66.3 61.5-59.8-24.4-107.4-38.1-193.1-22.2-72.5 13.5-111.5-40.8-19.3-69.2z"></path><path d="m2353.2 2300.1c117-33.5 255.7-24.6 318 24.5 89.1 70.2 3.8 90.7-77 62.9-67.9-23.3-122.1-36-220.3-18.4-83.1 14.9-126.6-38.7-20.7-69z"></path><path d="m1484.9 506.3c-96.9.1-150.7 20-169.4 78.4s58.3-11.1 160.7-5.7c102.3 5.4 156.9 54.8 151.6 3.1-5.3-51.8-39.4-76-142.9-75.8z"></path><path d="m1451.6 754.8c-101.5.2-157.8 21-177.3 82s61-11.6 168.2-6 164.2 57.3 158.7 3.2c-5.6-54.1-41.4-79.4-149.6-79.2z"></path><path d="m1424.8 1053.6c-124.9.2-194.2 25.8-218.2 101s75.1-14.3 207-7.4 202.1 70.6 195.3 4c-6.8-66.7-50.8-97.8-184.1-97.6z"></path><path d="m1401.2 1416.3c-138-5-247.7 17-264.3 102.6-14.5 75.3 65.8 1.3 247.9.3 155.6-.9 213.4 64.9 225-1 10.1-56.6-61.4-96.5-208.6-101.9z"></path><path d="m1375.6 1836.4c-148.8-5.4-267.1 16.3-284.7 101.9-15.5 75.3 71 1.5 267.4 1 167.8-.4 230.3 65.6 242.7-.3 10.7-56.7-66.6-96.8-225.4-102.6z"></path><path d="m1369.6 2272c-148.6-8.8-273 23.3-286.9 95.3-14.6 75.4 71 3.1 267.3 7.1 167.8 3.4 228.7 70.8 242.6 5.2 11.9-56.4-64.4-98.2-223-107.6z"></path><path d="m1337.7 2766.5c-148-16.5-273.9 9.2-291.5 80.4-18.4 74.6 70.7 6.8 266.6 20.9 167.4 12.1 224.8 82.5 242 17.7 14.9-55.7-59.2-101.4-217.1-119z"></path><path d="m1879.3 2767.4c146.5-26.7 273.8-9.7 296.3 60.1 23.6 73.1-70.1 11.6-264.5 39.2-166.2 23.6-218.5 97.8-240.2 34.4-18.6-54.5 52.1-105.3 208.4-133.7z"></path><path d="m1827.3 521.3c-72.9-12.4-125.7 7.6-121.5 52.1 3.9 41.5 50.4.2 121.6 21.3 51.5 15.2 57.2 49.6 85.8 43.7 28.7-6-2.3-102.9-85.9-117.1z"></path><path d="m1864.8 763.8c-120-17.4-196.5 13.4-179.5 62.8 15.6 45.2 79.3-19.2 179.6 19 55.9 21.3 63.8 55.4 95.7 48.7 32-6.6-2.1-116.9-95.8-130.5z"></path><path d="m1921.6 1078.2c-120-17.4-224.9-1.1-200.1 71.4 15.5 45.3 93.9-4.9 194.2 15.4 58.7 11.9 73.4 58.2 105.3 51.5 32-6.6-5.7-124.7-99.4-138.3z"></path><path d="m1945 1443.4c-130.8-17.3-245.3-1.1-218.3 71.4 16.9 45.3 102.4-4.9 211.8 15.4 64 11.9 80 58.2 114.9 51.5s-6.3-124.7-108.4-138.3z"></path><path d="m2017.4 1833c-137.3-17.3-321.6 20.4-310.8 88.2 7.6 47.8 189.2-21.7 304.1-1.4 67.2 11.9 84 58.1 120.6 51.5s-6.7-124.8-113.9-138.3z"></path><path d="m2053.7 2267.6c-144.3-26.3-339.9 21.7-329.5 106.8 7.3 60 200.1-24.8 321.2 2 70.8 15.7 87.9 73.9 126.6 66s13.6-150.8-118.3-174.8z"></path></g><path d="m1120.8 3204.6c-137.3-176.2-260.3-335-384.8-376s140 264.5 263 414.5c190.2 232 298.5 416.4 353 455.7 54.6 39.4 9.2-185.8-231.2-494.2z" fill="#8ec90d"></path><path d="m2174.7 3135.4c99.3-174 138.1-260.7 243.4-313.1s-40.5 182.7-130.4 331.6c-139 230.3-211.5 407.8-254.8 449.8s-32-163.8 141.8-468.3z" fill="#8ec90d"></path><path d="m1625.9 3506.1c-46-119.7-215.6-342.2-317.2-403.6s119.4 188.9 215.7 381.9c82.5 165.2 228.1 350.7 101.5 21.7z" fill="#8ec90d"></path><path d="m512.1 2665.9c-63.4-21.2-38.6 275.1 9.3 476.2 31.5 132.3 129 317.6 175.3 365.3s-36.3-104.2-112.7-398.2c-63-242.7-15.2-424.3-71.9-443.3z" fill="#8ec90d"></path><path d="m1963.4 3025.9c-75 52.3-216.8 162.2-263.9 261.8s80.9 59.8 157.2-5.9c76.1-65.8 233.8-344.5 106.7-255.9z" fill="#8ec90d"></path><path d="m2695.5 2624.8c-49.8 24.8-55.3 99.4-114.8 397.9-59.5 298.6 40.1 108.5 99.8-101.4 59.6-209.9 78.7-328.2 15-296.5z" fill="#8ec90d"></path><path d="m557.5 678.8c-81.1 119.6-144.1 226.1-161.3 499.4-19.3 308 134.7-259.3 168-362.4 33.3-103.2 70.6-251-6.7-137z" fill="#8ec90d"></path><path d="m247.1 1166c-43.9 106.5-51.1 191.9-59.3 443.4-8 245.9 77.5-251.7 86.8-337.5 9.2-86 14.4-207.4-27.5-105.9z" fill="#8ec90d"></path><path d="m884.3 299.5c-37-37.7-134.7 171.4-184.8 409.1-50.2 237.8-25.4 220.1 63.1-43.2 90.6-269.7 149.7-337.3 121.7-365.9z" fill="#8ec90d"></path><path d="m66.4 1761.2c-22.2 67.9-26.8 226.8 6.7 320.2 45 125.7 34.6-31.1 29.7-97.7-11.4-154.7-14.2-290.4-36.4-222.5z" fill="#8ec90d"></path><path d="m2585.6 675.8c81.5 119.3 144.8 225.7 162.7 498.9 20.2 308-135.5-258.9-169.1-361.9-33.5-103.1-71.3-250.8 6.4-137z" fill="#8ec90d"></path><path d="m2897.3 1162.1c44.3 106.3 51.7 191.7 60.7 443.2 8.8 245.9-78.2-251.4-87.8-337.3s-15-207.3 27.1-105.9z" fill="#8ec90d"></path><path d="m2257.6 297.5c36.9-37.8 135.2 171 186.1 408.6s26 220-63.2-43c-91.5-269.6-150.8-336.9-122.9-365.6z" fill="#8ec90d"></path><path d="m3079.9 1756.7c22.4 67.8 27.5 226.7-5.7 320.3-44.6 125.8-34.7-31-30-97.6 10.9-154.8 13.3-290.5 35.7-222.7z" fill="#8ec90d"></path><path d="m1813.6 223c-149.2-80.7-202.6-159.1-243.5-159-41 .1-94.1 78.5-243 159.8-58.9 32.1-16.1 42.7 45.7 10.4 89.2-46.6 167.3-84.4 197.5-84.5 30.2 0 108.4 37.5 197.7 83.9 61.8 32.1 104.6 21.4 45.6-10.6z" fill="#8ec90d"></path><path d="m1830 4312.6c-16.6-52.5-167.6-52.3-253-52.1s-236.4.4-252.8 52.9c-20.3 64.9 37.8 32.2 253 31.9s273.3 32.1 252.8-32.7z" fill="#360"></path><path d="m2691.2 2248.2c-57.5-23.9-118.9-38.4-182.4-43.3-50.7-3.9-103-1.6-155.2 6.7-78.9 12.6-132.9 34.9-145.8 40.6 9.9-17 25.6-58 19.8-142.1-1-14.3-1.9-27.6-2.7-40.4-6.1-94.3-9.8-151.2-43.4-213.4-10-18.5-24.8-34.7-44-48.3 23.8-7.6 74-21.5 133.4-31.1 73.5-11.8 180.8-20.2 274.1 7.5 4.3 1.3 8.8-1.2 10-5.4 1.3-4.3-1.2-8.8-5.4-10-54.1-16-147.9-30.3-287-7-44.3 7.4-81.1 16.6-104.2 23.1-14.2 4-24.4 7.2-30.4 9.2-3.4 1.1-5.9 2-7.9 2.7-4.4-2.4-8.9-4.8-13.6-7 18.7-27.6 26.5-82.5 23.4-163.5-2.6-66.3-11.8-126.9-11.9-127.5l-15.9 2.5c.1.6 9.2 60.4 11.7 125.8 3.8 98.4-9.3 139.4-22.4 156.2-21.7-8.6-46.4-15.2-74-19.6-137.7-22-318.6 15.1-394.3 79.9-27.1-25.3-65.9-45.7-115.2-60-137.5-40-328.1-23.7-407.8 34.9-3.9 2.8-7.5 5.8-11 8.8-33.1-23-27.9-75.5-27.8-76 0-.1 0-.3 0-.4 5.9-104.1 22.9-229.6 23.1-230.9.6-4.4-2.5-8.5-6.9-9.1s-8.5 2.5-9.1 6.9c-.2 1.3-17.2 127.3-23.2 232-.2 2.1-1.5 16.5 1.6 34 2.1 11.8 5.7 22.3 10.7 31.5-29.1-9.8-77.6-23.8-138-32-58-7.9-115-8.8-169.4-2.6-68.1 7.7-132.2 26.5-190.5 55.8-4 2-5.6 6.8-3.6 10.8 1.4 2.8 4.3 4.4 7.2 4.4 1.2 0 2.4-.3 3.6-.9 56.6-28.4 118.7-46.7 184.8-54.2 53-6 108.6-5.2 165.2 2.5 82.1 11.1 142.9 33.5 159.8 40.2-20.5 22.4-33.9 50.8-43 90-12.1 52-16.5 124.5-20.9 213.8-3.3 64.8 9.3 102.9 21.3 124.2-73.6-27.9-146.5-45.2-216.9-51.6-62.2-5.7-122.6-2.9-179.6 8.2-97.4 19-150.6 55.4-152.8 57-3.7 2.5-4.5 7.6-2 11.2 1.6 2.3 4.1 3.5 6.6 3.5 1.6 0 3.2-.5 4.6-1.4.5-.4 53.2-36.3 147.6-54.6 55.4-10.7 114.2-13.3 174.8-7.7 74.3 6.9 151.5 26.2 229.4 57.4-13.5 18.5-24.6 40.1-33.8 65.4-19.4 53.5-31.5 125.7-38.1 227.3-6.1 94.1 16.7 145.6 35.9 171.8-7.9-1.7-17.1-3.4-27.6-4.6-33.1-4-85.5-4.6-146.8 14.9-4.2 1.4-6.6 5.9-5.2 10.1 1.1 3.4 4.3 5.6 7.7 5.6.8 0 1.6-.1 2.4-.4 58.2-18.6 107.9-18 139.3-14.3 19 2.2 33.8 5.9 43.3 8.7-19.8 21.7-36 51.5-48.2 88.9l15.3 5c15.2-46.6 36.6-80.3 63.5-100 36.7-26.9 102.3-46 180-52.2 78.8-6.3 160.4 1.4 224 21.2 48.9 15.3 111.3 45.1 130.5 100.8 16.2 47 24.3 98.9 24.1 154.3-.2 44.4-5.8 91.2-16.6 138.9-18.4 81.5-48.2 139.3-48.5 139.8l11 15c1.2-2.4 34.3-67.6 53.2-150.8 11.1-48.9 16.9-96.9 17.1-142.6.3-55.6-7.6-108-23.6-155.7 33.8-42.2 98.5-77.9 182.9-100.9 81.2-22.1 173.5-30.4 253.4-22.7 46.8 4.5 86.7 14 118.6 28.3 33.6 15.1 56.5 34.7 68.2 58.4 4.1 8.4 11.6 23.5 15.2 32.3l13.8-8.8c-3.7-9.1-10.2-21.9-14.5-30.6-3.9-7.9-8.8-15.3-14.7-22.3 1.7-1.7 3.5-3.9 5.6-6.5 4.4-2.4 19.6-10.2 43.3-17.2 26.1-7.7 68.1-16.1 120.3-12 4.4.3 8.3-3 8.7-7.4.3-4.4-3-8.3-7.4-8.7-69.7-5.5-122.3 9.6-150.7 21 .4-.9.8-1.9 1.3-2.8 16.8-39.1 24-94.5 21.6-164.8-5.3-155.7-11-225.5-46-290.4-2.7-5-5.9-9.9-9.4-14.5 12.2-5.3 65.6-27.3 141.8-39.4 51-8.1 101.9-10.3 151.4-6.5 61.8 4.7 121.5 18.9 177.5 42.1 4.1 1.7 8.8-.2 10.5-4.4 1.2-4.2-.7-8.9-4.8-10.6zm-896.5-460.1c74.3-15.8 154.5-18.8 220-8.3 44.2 7.1 76.5 19 100.1 32.7.2.2.5.3.7.5.2.1.3.2.5.2 27.3 16.2 42.7 34.8 51.3 50.8 31.9 59.1 35.3 111.5 41.5 206.8.8 12.9 1.7 26.2 2.7 40.5 2.2 31.2 2.5 75.8-8.3 110.9-3.4 11.1-7.1 18.5-9.8 22.9-28.9-24-71.5-40.8-125.8-49.5-73.5-11.8-166.4-7.9-254.9 10.5-65.2 13.6-121.1 33.6-160.4 57 11.6-28.1 18.7-64.9 21.2-109.6.8-14.3 1.6-27.6 2.4-40.4 5.6-94.3 9.1-151.3-16.6-217.1-5.6-14.5-14.1-28.1-25-40.5 33.3-28.4 91.1-52.7 160.4-67.4zm-751.2 463.4c-15.2-33.2-16.6-76.7-15.1-107.3 9.8-194.7 18.8-266.9 80.9-312.6 35.8-26.3 99.4-45.1 174.4-51.4 75.7-6.4 155.7.5 219.3 19 94.2 27.4 128.7 70.9 141 102.5 24.4 62.6 21.2 115.1 15.5 210.3-.8 12.9-1.6 26.2-2.4 40.5-4.5 81.7-24.4 117.1-34 129.7-27.1-30.7-69.9-55-126.4-71.5-137.5-40-328.1-23.7-407.8 34.9-11.4 8.4-21.8 17.8-31.1 28.2-3.5-3.8-9-10.9-14.3-22.3zm538.8 543.4c-24.7-31.3-65.4-56.3-120.2-73.4-137.1-42.7-336.5-26.8-418.4 33.4-2.3 1.7-4.5 3.4-6.7 5.3-5.6-4.7-15.4-14.7-24.7-32.4-23.5-44.8-25.2-103.3-22.6-144.5 6.5-100 18.3-170.9 37.1-222.9 16.7-46.1 38.9-77.5 71.8-101.7 35.8-26.3 99.4-45.1 174.4-51.4 75.7-6.4 155.7.5 219.3 19 94.2 27.4 128.7 70.9 141 102.5 25.5 65.5 22.4 134.1 8.6 286.6-4.1 45.5-14.1 108.8-38.5 152-8.3 14.7-16 23.1-21.1 27.5zm671.4-222.5c1.6 45.7-.5 109.7-19.4 155.6-6.7 16.4-13.7 25.8-18.2 30.6-35.3-32.7-95.2-54.2-173.8-61.7-81.7-7.8-176.2.6-259.1 23.2-83.1 22.6-148.2 57.7-185.4 99.4-1.9-3.9-3.9-7.7-6.2-11.4 6.3-5.2 15.2-14.4 24.6-30.5 21.5-36.7 35.6-90.8 41.9-160.9 14-155.1 17.1-225.1-9.7-293.9-3.7-9.5-8.6-18.6-14.6-27.3 35.4-30.2 101.1-56.9 182.1-73.8 86.6-18.1 177.4-21.8 249-10.4 51.3 8.2 118 28.3 144.6 77.7 33.5 62 38.9 130.4 44.2 283.4z" fill="#c45a00"></path></g></svg>