<!-- icon666.com - MILLIONS OF FREE VECTOR ICONS --><svg id="Layer_1" enable-background="new 0 0 512 512" viewBox="0 0 512 512" xmlns="http://www.w3.org/2000/svg"><g><path d="m444 217.64v237.28h-376v-237.28l188-171.14z" fill="#87796f"></path><g fill="#3a312a"><path d="m444 457.92h-376c-1.656 0-3-1.342-3-3v-237.28c0-.844.356-1.65.98-2.218l188-171.14c1.144-1.042 2.894-1.042 4.04 0l188 171.14c.626.568.98 1.374.98 2.218v237.28c0 1.658-1.344 3-3 3zm-373-6h370v-232.954l-185-168.41-185 168.41z"></path><path d="m444 400.18h-376c-1.656 0-3-1.342-3-3s1.344-3 3-3h376c1.656 0 3 1.342 3 3s-1.344 3-3 3z"></path><path d="m444 342.44h-376c-1.656 0-3-1.342-3-3s1.344-3 3-3h376c1.656 0 3 1.342 3 3s-1.344 3-3 3z"></path><path d="m444 284.72h-376c-1.656 0-3-1.342-3-3s1.344-3 3-3h376c1.656 0 3 1.342 3 3s-1.344 3-3 3z"></path><path d="m444 226.98h-376c-1.656 0-3-1.342-3-3s1.344-3 3-3h376c1.656 0 3 1.342 3 3s-1.344 3-3 3z"></path><path d="m387.54 169.24h-263.08c-1.656 0-3-1.342-3-3s1.344-3 3-3h263.08c1.656 0 3 1.342 3 3s-1.344 3-3 3z"></path><path d="m324.1 111.5h-136.2c-1.656 0-3-1.342-3-3s1.344-3 3-3h136.2c1.656 0 3 1.342 3 3s-1.344 3-3 3z"></path></g><path d="m94.822 51.854s6.816 25.318 26.444 26.492c0 0-26.2 9.05-26.642 28.404 0 0-5.156-27.144-25.85-28.118 0 .002 24.1-3.65 26.048-26.778z" fill="#d6df58"></path><path d="m94.62 109.75c-1.426 0-2.67-1.012-2.946-2.434-.046-.248-4.988-24.836-23.042-25.686-1.542-.074-2.776-1.302-2.856-2.842s1.022-2.89 2.546-3.12c.882-.138 21.79-3.634 23.508-24.064.122-1.45 1.27-2.602 2.718-2.734 1.46-.128 2.788.798 3.168 2.202.062.232 6.518 23.252 23.726 24.28 1.428.086 2.594 1.168 2.792 2.586.196 1.416-.636 2.776-1.988 3.244-.242.084-24.236 8.622-24.626 25.638-.036 1.534-1.222 2.792-2.75 2.918-.082.01-.166.012-.25.012zm-15.482-31.458c7.756 3.938 12.462 11.492 15.174 17.752 4.052-8.042 11.884-13.574 17.898-16.854-8.268-3.684-13.566-11.302-16.668-17.444-3.586 8.718-10.542 13.736-16.404 16.546z" fill="#3a312a"></path><path d="m51.424 85.816s4.822 17.908 18.704 18.738c0 0-18.532 6.402-18.844 20.09 0 0-3.648-19.2-18.284-19.888 0 0 17.048-2.582 18.424-18.94z" fill="#d6df58"></path><path d="m51.284 127.644c-1.428 0-2.674-1.014-2.946-2.44-.032-.164-3.408-16.884-15.478-17.452-1.542-.074-2.776-1.302-2.856-2.842-.08-1.542 1.022-2.89 2.546-3.122.592-.094 14.726-2.486 15.884-16.226.124-1.452 1.272-2.606 2.722-2.736 1.438-.116 2.784.798 3.164 2.204.042.158 4.454 15.838 15.986 16.528 1.428.086 2.598 1.168 2.792 2.588.194 1.418-.64 2.776-1.992 3.244-.162.056-16.564 5.906-16.824 17.324-.036 1.534-1.222 2.796-2.752 2.922-.08.006-.164.008-.246.008zm-9.04-23.054c4.214 2.666 7.046 6.788 8.894 10.56 2.752-4.464 7.03-7.744 10.73-9.946-4.574-2.538-7.77-6.7-9.882-10.448-2.348 4.574-6.032 7.75-9.742 9.834z" fill="#3a312a"></path><path d="m51.424 32.5s4.822 17.908 18.704 18.74c0 0-18.532 6.402-18.844 20.09 0 0-3.648-19.2-18.284-19.888 0 0 17.048-2.584 18.424-18.942z" fill="#d6df58"></path><path d="m51.284 74.33c-1.428 0-2.674-1.014-2.946-2.44-.032-.164-3.408-16.884-15.478-17.452-1.542-.074-2.776-1.302-2.856-2.842-.08-1.542 1.022-2.89 2.546-3.12.592-.094 14.726-2.486 15.884-16.228.124-1.452 1.272-2.606 2.722-2.736 1.438-.114 2.784.798 3.164 2.204.042.158 4.454 15.84 15.986 16.53 1.428.086 2.598 1.168 2.792 2.586s-.64 2.776-1.992 3.244c-.162.056-16.564 5.904-16.824 17.324-.036 1.534-1.222 2.794-2.752 2.922-.08.006-.164.008-.246.008zm-9.04-23.056c4.214 2.664 7.046 6.788 8.894 10.56 2.752-4.464 7.032-7.744 10.73-9.944-4.574-2.54-7.77-6.7-9.882-10.448-2.348 4.572-6.032 7.75-9.742 9.832z" fill="#3a312a"></path><path d="m150.64 247.166h210.72v207.754h-210.72z" fill="#8ac5dc"></path><path d="m361.36 457.92h-210.72c-1.656 0-3-1.342-3-3v-207.752c0-1.658 1.344-3 3-3h210.72c1.656 0 3 1.342 3 3v207.752c0 1.658-1.344 3-3 3zm-207.72-6h204.72v-201.752h-204.72z" fill="#3a312a"></path><path d="m292.778 218h-156.778v29.166h240v-29.166h-59.444z" fill="#eb6e7a"></path><path d="m376 250.168h-240c-1.656 0-3-1.342-3-3v-29.168c0-1.658 1.344-3 3-3h156.78c1.656 0 3 1.342 3 3s-1.344 3-3 3h-153.78v23.168h234v-23.168h-56.446c-1.656 0-3-1.342-3-3s1.344-3 3-3h59.446c1.656 0 3 1.342 3 3v29.168c0 1.656-1.344 3-3 3z" fill="#3a312a"></path><path d="m479 479.5v-5.416c0-10.584-8.58-19.162-19.162-19.162h-407.676c-10.584 0-19.162 8.58-19.162 19.162v5.416z" fill="#87796f"></path><path d="m479 482.5h-446c-1.656 0-3-1.342-3-3v-5.416c0-12.22 9.942-22.162 22.162-22.162h407.676c12.22 0 22.162 9.942 22.162 22.162v5.416c0 1.658-1.344 3-3 3zm-443-6h440v-2.416c0-8.912-7.25-16.162-16.162-16.162h-407.676c-8.912 0-16.162 7.25-16.162 16.162z" fill="#3a312a"></path><path d="m107.082 163.132-69.224 63.016c-5.718 5.206-6.134 14.06-.93 19.778 5.206 5.716 14.06 6.132 19.778.928l199.294-181.422 199.296 181.42c2.684 2.444 6.056 3.648 9.42 3.648 3.802 0 7.594-1.54 10.358-4.576 5.206-5.718 4.79-14.572-.93-19.778l-208.718-190c-5.34-4.864-13.508-4.864-18.848 0l-121.43 110.54z" fill="#eb6e7a"></path><path d="m464.714 253.5c-4.24 0-8.302-1.574-11.44-4.428l-197.274-179.584-197.276 179.584c-6.932 6.308-17.704 5.804-24.016-1.126-3.056-3.358-4.622-7.706-4.41-12.242.214-4.536 2.182-8.718 5.538-11.774l69.224-63.016c1.222-1.114 3.126-1.026 4.238.2 1.116 1.226 1.026 3.124-.2 4.238l-69.224 63.016c-2.174 1.978-3.446 4.684-3.584 7.618-.138 2.936.876 5.748 2.854 7.92 4.086 4.486 11.058 4.812 15.54.728l199.294-181.42c1.144-1.042 2.894-1.042 4.04 0l199.294 181.42c2.03 1.848 4.658 2.866 7.4 2.866 3.092 0 6.058-1.31 8.138-3.596 1.978-2.172 2.992-4.984 2.854-7.92-.138-2.934-1.41-5.64-3.584-7.618l-208.718-190c-4.222-3.846-10.586-3.844-14.808 0l-121.43 110.54c-1.222 1.116-3.124 1.028-4.238-.2-1.116-1.226-1.026-3.124.2-4.238l121.43-110.54c6.526-5.94 16.366-5.942 22.886 0l208.718 190c3.358 3.056 5.326 7.238 5.54 11.774.212 4.536-1.354 8.882-4.41 12.242-3.216 3.532-7.8 5.556-12.576 5.556z" fill="#3a312a"></path><path d="m302.324 188h-90.648v-43h90.648z" fill="#d6df58"></path><path d="m302.324 191h-90.648c-1.656 0-3-1.342-3-3v-43c0-1.658 1.344-3 3-3h90.648c1.656 0 3 1.342 3 3v43c0 1.658-1.344 3-3 3zm-87.648-6h84.648v-37h-84.648z" fill="#3a312a"></path><path d="m150.64 457.84c-.776 0-1.548-.298-2.136-.894-1.162-1.18-1.148-3.08.032-4.242l210.718-207.68c1.18-1.162 3.078-1.148 4.242.032 1.162 1.18 1.148 3.08-.032 4.242l-210.718 207.678c-.584.576-1.346.864-2.106.864z" fill="#3a312a"></path><path d="m361.36 457.84c-.76 0-1.522-.286-2.106-.864l-210.718-207.68c-1.18-1.164-1.194-3.062-.032-4.242 1.164-1.178 3.062-1.196 4.242-.032l210.718 207.68c1.18 1.162 1.194 3.062.032 4.242-.588.598-1.362.896-2.136.896z" fill="#3a312a"></path><path d="m471.326 355.004h-102.192c-3.844 0-7.316 2.876-7.486 6.716-.178 4.03 3.038 7.352 7.028 7.352h102.65c3.886 0 7.034-3.15 7.034-7.034s-3.15-7.034-7.034-7.034z" fill="#d6df58"></path><path d="m471.326 372.074h-102.652c-2.764 0-5.336-1.1-7.248-3.096-1.91-1.996-2.896-4.62-2.778-7.388.234-5.286 4.938-9.586 10.484-9.586h102.194c5.534 0 10.034 4.502 10.034 10.034 0 5.534-4.5 10.036-10.034 10.036zm-102.194-14.07c-2.38 0-4.394 1.726-4.49 3.85-.046 1.114.35 2.172 1.118 2.974.77.802 1.802 1.244 2.914 1.244h102.652c2.224 0 4.034-1.81 4.034-4.036 0-2.224-1.808-4.034-4.034-4.034h-102.194z" fill="#3a312a"></path><path d="m471.326 430.038h-102.412c-3.388 0-6.486 2.294-7.134 5.62-.878 4.506 2.548 8.45 6.896 8.45h102.65c3.884 0 7.034-3.15 7.034-7.034 0-3.886-3.15-7.036-7.034-7.036z" fill="#d6df58"></path><path d="m471.326 447.108h-102.652c-3.01 0-5.832-1.334-7.746-3.658s-2.678-5.372-2.094-8.366c.906-4.662 5.144-8.044 10.078-8.044h102.414c5.534 0 10.034 4.5 10.034 10.034s-4.5 10.034-10.034 10.034zm-102.414-14.068c-2.034 0-3.834 1.372-4.188 3.192-.244 1.248.052 2.458.834 3.406.77.936 1.906 1.472 3.116 1.472h102.652c2.224 0 4.034-1.81 4.034-4.034s-1.808-4.034-4.034-4.034h-102.414z" fill="#3a312a"></path><path d="m410.47 479.5v-145.284l-15.884-25.716-16.792 25.716v145.284z" fill="#fae6ca"></path><path d="m410.468 482.5h-32.676c-1.656 0-3-1.342-3-3v-145.284c0-.584.17-1.152.488-1.64l16.792-25.716c.56-.86 1.474-1.338 2.548-1.36 1.028.012 1.976.55 2.516 1.424l15.882 25.716c.292.474.448 1.02.448 1.576v145.284c.002 1.658-1.34 3-2.998 3zm-29.676-6h26.676v-141.432l-12.954-20.972-13.722 21.014z" fill="#3a312a"></path><path d="m462.206 479.5v-145.284l-15.884-25.716-16.792 25.716v145.284z" fill="#fae6ca"></path><g fill="#3a312a"><path d="m462.208 482.5h-32.676c-1.656 0-3-1.342-3-3v-145.284c0-.582.17-1.152.488-1.64l16.792-25.716c.554-.848 1.5-1.36 2.512-1.36h.038c1.028.012 1.976.55 2.516 1.424l15.884 25.716c.292.474.448 1.02.448 1.576v145.284c-.002 1.658-1.346 3-3.002 3zm-29.676-6h26.676v-141.432l-12.954-20.972-13.72 21.014v141.39z"></path><path d="m388.61 361.756c0-3.05 2.472-5.522 5.522-5.522s5.522 2.472 5.522 5.522-2.472 5.522-5.522 5.522-5.522-2.472-5.522-5.522z"></path><path d="m440.29 361.756c0-3.05 2.472-5.522 5.522-5.522s5.522 2.472 5.522 5.522-2.472 5.522-5.522 5.522-5.522-2.472-5.522-5.522z"></path><path d="m388.61 436.544c0-3.05 2.472-5.522 5.522-5.522s5.522 2.472 5.522 5.522-2.472 5.522-5.522 5.522-5.522-2.472-5.522-5.522z"></path><path d="m440.29 436.544c0-3.05 2.472-5.522 5.522-5.522s5.522 2.472 5.522 5.522-2.472 5.522-5.522 5.522-5.522-2.472-5.522-5.522z"></path></g><path d="m142.966 355.004h-102.192c-3.844 0-7.318 2.876-7.486 6.716-.178 4.03 3.036 7.352 7.028 7.352h102.65c3.886 0 7.034-3.15 7.034-7.034s-3.15-7.034-7.034-7.034z" fill="#d6df58"></path><path d="m142.964 372.074h-102.65c-2.764 0-5.34-1.1-7.25-3.098-1.912-1.998-2.896-4.62-2.776-7.386.234-5.286 4.938-9.584 10.484-9.584h102.192c5.534 0 10.036 4.502 10.036 10.034s-4.502 10.034-10.036 10.034zm-102.19-14.07c-2.38 0-4.394 1.726-4.49 3.85-.048 1.114.348 2.17 1.116 2.974.77.804 1.804 1.246 2.916 1.246h102.65c2.224 0 4.036-1.81 4.036-4.036 0-2.224-1.81-4.034-4.036-4.034z" fill="#3a312a"></path><path d="m142.966 430.038h-102.412c-3.388 0-6.486 2.294-7.134 5.62-.878 4.506 2.548 8.45 6.896 8.45h102.65c3.886 0 7.034-3.15 7.034-7.034 0-3.886-3.15-7.036-7.034-7.036z" fill="#d6df58"></path><path d="m142.964 447.108h-102.65c-3.008 0-5.832-1.332-7.746-3.656s-2.678-5.372-2.096-8.368c.91-4.662 5.148-8.046 10.08-8.046h102.412c5.534 0 10.036 4.5 10.036 10.034s-4.502 10.036-10.036 10.036zm-102.412-14.068c-2.034 0-3.836 1.374-4.19 3.194-.244 1.246.052 2.454.836 3.404.77.936 1.906 1.472 3.116 1.472h102.65c2.224 0 4.036-1.81 4.036-4.034s-1.81-4.034-4.036-4.034h-102.412z" fill="#3a312a"></path><path d="m82.11 479.5v-145.284l-15.884-25.716-16.792 25.716v145.284z" fill="#fae6ca"></path><path d="m82.11 482.5h-32.676c-1.656 0-3-1.342-3-3v-145.284c0-.582.17-1.152.488-1.64l16.792-25.716c.56-.86 1.482-1.338 2.55-1.36 1.028.012 1.976.55 2.516 1.424l15.884 25.716c.292.474.448 1.02.448 1.576v145.284c-.002 1.658-1.346 3-3.002 3zm-29.676-6h26.676v-141.432l-12.956-20.972-13.72 21.014z" fill="#3a312a"></path><path d="m133.846 479.5v-145.284l-15.884-25.716-16.792 25.716v145.284z" fill="#fae6ca"></path><path d="m133.848 482.5h-32.678c-1.656 0-3-1.342-3-3v-145.284c0-.584.17-1.152.488-1.64l16.792-25.716c.56-.86 1.428-1.338 2.548-1.36 1.028.012 1.976.55 2.516 1.424l15.886 25.716c.292.474.448 1.02.448 1.576v145.284c0 1.658-1.344 3-3 3zm-29.678-6h26.678v-141.432l-12.954-20.972-13.722 21.014v141.39z" fill="#3a312a"></path><path d="m60.25 361.756c0-3.05 2.472-5.522 5.522-5.522s5.522 2.472 5.522 5.522-2.472 5.522-5.522 5.522-5.522-2.472-5.522-5.522z" fill="#3a312a"></path><path d="m111.93 361.756c0-3.05 2.472-5.522 5.522-5.522s5.522 2.472 5.522 5.522-2.472 5.522-5.522 5.522-5.522-2.472-5.522-5.522z" fill="#3a312a"></path><circle cx="65.772" cy="436.544" fill="#3a312a" r="5.522"></circle><path d="m111.93 436.544c0-3.05 2.472-5.522 5.522-5.522s5.522 2.472 5.522 5.522-2.472 5.522-5.522 5.522-5.522-2.472-5.522-5.522z" fill="#3a312a"></path><path d="m441 284.72v26.44l-13.98 21.42c-.32.48-.48 1.06-.48 1.64v2.22h-13.08v-2.22c0-.56-.14-1.1-.44-1.58l-4.02-6.52v-41.4z" fill="#695b51"></path><path d="m413.468 372.074h13.062v22.106h-13.062z" fill="#695b51"></path><path d="m413.468 342.44h13.062v9.564h-13.062z" fill="#695b51"></path><path d="m413.468 447.108h13.062v4.812h-13.062z" fill="#695b51"></path><path d="m413.468 400.18h13.062v26.86h-13.062z" fill="#695b51"></path><path d="m441 237.9v40.82h-30v-40.82l-12-10.92h30z" fill="#6a5c52"></path><path d="m358.98 163.24h-30l-56.82-51.74h30z" fill="#6a5c52"></path><path d="m422.42 220.98h-30l-56.84-51.74h30z" fill="#6a5c52"></path><path d="m295.56 105.5h-30l-24.56-22.36 15-13.66z" fill="#6a5c52"></path></g></svg>