<!-- icon666.com - MILLIONS OF FREE VECTOR ICONS --><svg clip-rule="evenodd" fill-rule="evenodd" image-rendering="optimizeQuality" shape-rendering="geometricPrecision" text-rendering="geometricPrecision" viewBox="0 0 1.70666 1.70666" xmlns="http://www.w3.org/2000/svg"><g id="Layer_x0020_1"><path d="m.0202165 1.47866c-.0110354 0-.0199961-.00897244-.0199961-.0199961v-1.19356c0-.114287.0929803-.207276.207264-.207276h1.05627c.0110354 0 .0199921.00895669.0199921.0199921v1.21063c0 .0110354-.0089685.0199921-.0199921.0199921h-1.07334c-.082815 0-.150197.0673858-.150197.150197 0 .0110669-.00894488.0200236-.0199961.0200236zm.187283-1.38084c-.0922362 0-.167272.0750512-.167272.167287v1.07699c.0348228-.0447835.0891969-.0736496.150197-.0736496l1.05334.00000394v-1.17063h-1.03627z"></path><path d="m1.26376 1.64885h-1.07333c-.104878 0-.190189-.0853268-.190189-.190185 0-.104858.0853268-.190201.190189-.190201h1.07333c.0110394 0 .0199961.0089685.0199961.0199921v.340398c0 .0110276-.00895276.0199961-.0199961.0199961zm-1.07333-.340398c-.0828228 0-.150197.0673819-.150197.150197 0 .082811.0673819.150181.150197.150181l1.05333.00000394v-.300394h-1.05333v.00001181z"></path><path d="m.330413 1.30845h-.122929c-.0110354 0-.0199921-.0089685-.0199921-.0199961v-1.21063c0-.0110354.00895669-.0199921.0199921-.0199921h.122929c.0110354 0 .0199961.00895669.0199961.0199921v1.21063c0 .0110512-.00894488.0200039-.0199961.0200039zm-.102917-.04h.0829213v-1.17063h-.082937v1.17063h.00001575z"></path><path d="m1.10831.489228h-.622457c-.0110394 0-.0199961-.00896063-.0199961-.0199961v-.24735c0-.0110394.00895669-.0199961.0199961-.0199961h.622457c.0110394 0 .0199961.00895669.0199961.0199961v.247335c.00001575.0110551-.00895276.0200118-.0199961.0200118zm-.602465-.0399921h.582472v-.207362h-.582472z"></path><path d="m1.10708.62426c-.0396693 0-.0819252.00811417-.0819252-.0199921 0-.0281102.0422795-.0199961.0819252-.0199961.0263228 0 .0263228.0399882 0 .0399882zm-.18037 0h-.439634c-.0263228 0-.0263228-.0399882 0-.0399882h.439634c.0263189 0 .0263228.0399882 0 .0399882z"></path><path d="m1.10708 1.1644h-.0700787c-.0263268 0-.026315-.0399921 0-.0399921h.0700787c.0263189 0 .0263189.0399921 0 .0399921zm-.196075 0h-.423929c-.0263189 0-.0263189-.0399921 0-.0399921h.423941c.0263228 0 .0263189.0399921-.00001181.0399921z"></path><path d="m1.03457 1.47866h-.78515c-.0263189 0-.0263189-.0399921 0-.0399921h.78515c.0263189 0 .0263268.0399921 0 .0399921z"></path><path d="m1.54229 1.64885c-.00752756-.00001575-.0144134-.00423622-.0178189-.0109409-.0162835-.0320512-.146197-.280673-.146197-.292339v-.949335c0-.0110354.0089685-.0199921.0199961-.0199921h.288173c.0110354 0 .0199961.00895669.0199961.0199921v.949335c0 .0116732-.130035.260327-.146335.292354-.00340551.00668898-.0102913.0109252-.017815.0109252zm-.124012-.308087.124035.243961.124138-.243976v-.924528h-.248173z"></path><path d="m1.61674 1.50253h-.14885c-.0263228 0-.026311-.0399882 0-.0399882h.14885c.026315 0 .026315.0399882 0 .0399882z"></path><path d="m1.68644 1.36557h-.288173c-.0263268 0-.026315-.0399882 0-.0399882h.288173c.0263189 0 .0263189.0399882 0 .0399882z"></path><path d="m1.68644.41622h-.288173c-.0110394 0-.0199961-.00895669-.0199961-.0199921v-.121748c0-.0110354.0089685-.0199961.0199961-.0199961h.288173c.0110354 0 .0199961.00896063.0199961.0199961v.121748c0 .0110512-.00896063.0199921-.0199961.0199921zm-.268165-.0399882h.248173v-.0817559h-.248173z"></path><path d="m1.68644.294476h-.288173c-.0110394 0-.0199961-.00896063-.0199961-.0199961v-.196673c0-.0110354.0089685-.0199921.0199961-.0199921h.288173c.0110354 0 .0199961.00895669.0199961.0199921v.196673c0 .0110354-.00896063.0199961-.0199961.0199961zm-.268165-.0399921h.248173v-.156681h-.248173z"></path><path d="m1.48404 1.36557c-.0110354 0-.0199961-.0089685-.0199961-.0199961v-.949335c0-.026315.0399882-.026315.0399882 0v.949335c0 .0110276-.00895669.0199961-.0199921.0199961z"></path><path d="m1.60067 1.36557c-.0110354 0-.0199921-.0089685-.0199921-.0199961v-.949335c0-.026315.0399882-.026315.0399882 0v.949335c.00001181.0110276-.00895669.0199961-.0199961.0199961z"></path><path d="m1.10709 1.02938h-.423929c-.0263189 0-.0263189-.0399921 0-.0399921h.423945c.0263228 0 .0263189.0399921-.00001575.0399921zm-.549937 0h-.0700787c-.0263189 0-.0263189-.0399921 0-.0399921h.0700787c.026315 0 .0263228.0399921 0 .0399921z"></path><path d="m1.10709.894331h-.0700748c-.0263268 0-.026315-.0399882 0-.0399882h.0700748c.0263189 0 .0263228.0399882 0 .0399882zm-.196087 0h-.423929c-.0263189 0-.0263189-.0399882 0-.0399882h.423929c.0263268 0 .0263268.0399882 0 .0399882z"></path><path d="m1.10709.759295h-.423929c-.0263228 0-.0263228-.0399882 0-.0399882h.423929c.0263189 0 .0263228.0399882 0 .0399882zm-.549937 0h-.0700787c-.0263228 0-.0263228-.0399882 0-.0399882h.0700787c.026311 0 .0263307.0399882 0 .0399882z"></path><path d="m1.243755 1.30844h-.91265c-.00022835.00000787-.00046063.00001181-.00069291.00001181h-.122929c-.00023228 0-.00046457-.00000394-.00069291-.00001181l-.0163661.00001181c-.0828228 0-.150197.0673819-.150197.150197 0 .082811.0673819.150181.150197.150181l1.05333.00000394v-.300394zm-.994335.130228h.78515c.0263189 0 .0263268.0399921 0 .0399921h-.78515c-.0263189 0-.0263189-.0399921 0-.0399921z" fill="#fee8c0"></path><path d="m.310417 1.26845v-1.1706311h-.082937v1.1706311z" fill="#fea01a"></path><path d="m.187492 1.26849v-1.16948c-.0828386.00992126-.147264.0806299-.147264.166098v1.07699c.0342638-.044063.0874567-.0727165.147264-.0736102z" fill="#fdc44f"></path><path d="m.50585.449236h.58247v-.207362h-.58247z" fill="#fea01a"></path><path d="m.485858.201886h.622457c.0110394 0 .0199961.00895669.0199961.0199961v.247335c.00001575.0110551-.00895276.0200118-.0199961.0200118h-.622457c-.0110394 0-.0199961-.00896063-.0199961-.0199961v-.24735c0-.0110394.00895669-.0199961.0199961-.0199961zm.00122047.382386h.439634c.0263189 0 .0263228.0399882 0 .0399882h-.439634c-.0263228 0-.0263228-.0399882 0-.0399882zm0 .135035h.0700787c.026311 0 .0263307.0399882 0 .0399882h-.0700787c-.0263228 0-.0263228-.0399882 0-.0399882zm-.136669-.621488v1.17063l.893358.00000394v-1.17063h-.893358zm.332756.621488h.423929c.0263189 0 .0263228.0399882 0 .0399882h-.423929c-.0263228 0-.0263228-.0399882 0-.0399882zm.353854.135035h.0700748c.0263189 0 .0263228.0399882 0 .0399882h-.0700748c-.0263268 0-.026315-.0399882 0-.0399882zm-.549941 0h.423929c.0263268 0 .0263268.0399882 0 .0399882h-.423929c-.0263189 0-.0263189-.0399882 0-.0399882zm.196087.135043h.423945c.0263228 0 .0263189.0399921-.00001575.0399921h-.423929c-.0263189 0-.0263189-.0399921 0-.0399921zm-.196087 0h.0700787c.026315 0 .0263228.0399921 0 .0399921h-.0700787c-.0263189 0-.0263189-.0399921 0-.0399921zm.549925.13502h.0700787c.0263189 0 .0263189.0399921 0 .0399921h-.0700787c-.0263268 0-.026315-.0399921 0-.0399921zm-.549925 0h.423941c.0263228 0 .0263189.0399921-.00001181.0399921h-.423929c-.0263189 0-.0263189-.0399921 0-.0399921zm.538079-.520138c0-.0281102.0422795-.0199961.0819252-.0199961.0263228 0 .0263228.0399882 0 .0399882-.0396693 0-.0819252.00811417-.0819252-.0199921z" fill="#fdc44f"></path><path d="m1.41828.0978031v.1566809h.24817v-.1566809z" fill="#ff5477"></path><path d="m1.66645.294476h-.24817v.081756h.24817z" fill="#dff4ff"></path><path d="m1.58068.41622h-.07665v.90936h.07665z" fill="#fde380"></path><path d="m1.62067.41622v.90936h.04578v-.90936z" fill="#fdd53c"></path><path d="m1.46404 1.32558v-.90936h-.04576v.90936z" fill="#fdd53c"></path><path d="m1.60067 1.36557h-.11663-.05315l.0493.09697h.12429l.04934-.09697z" fill="#fef1be"></path><path d="m1.58413 1.50253h-.08361l.04179.08219z" fill="#435064"></path></g></svg>