<!-- icon666.com - MILLIONS OF FREE VECTOR ICONS --><svg id="Icons" viewBox="0 0 60 60" xmlns="http://www.w3.org/2000/svg"><path d="m26.029 35.049a.5.5 0 0 1 -.274-.918l7.255-4.772-1.1.633a.5.5 0 0 1 -.539-.841l6.752-4.79-.923.539a.5.5 0 0 1 -.551-.831l3.125-2.369a.5.5 0 0 1 -.2-.821l1.931-2a.5.5 0 0 1 .216-.614l.913-.528a.5.5 0 0 1 .609.781l-.48.5 2.387-1.378a.5.5 0 0 1 .552.831l-2.024 1.529 3.214-1.856a.5.5 0 0 1 .539.841l-6.755 4.792 6.734-3.887a.5.5 0 0 1 .525.85l-7.253 4.77 7.169-4.139a.5.5 0 0 1 .5.865l-22.072 12.745a.5.5 0 0 1 -.25.068z" fill="#9a8071"></path><path d="m4.479 59.425a.5.5 0 0 1 -.28-.914l3.97-2.679-4.51 2.6a.5.5 0 0 1 -.518-.855l4.59-2.93-4.714 2.725a.5.5 0 0 1 -.517-.852l15.9-10.3-16.4 9.468a.5.5 0 0 1 -.51-.86l.453-.276-.467.269a.5.5 0 0 1 -.511-.859l6.789-4.152-5.989 3.457a.5.5 0 0 1 -.509-.861l11.171-6.768a.5.5 0 0 1 -.047-.877l4.779-2.938a.6.6 0 0 1 -.42-.21.5.5 0 0 1 .08-.669l1.364-1.175-1.621.934a.5.5 0 0 1 -.581-.807l1.589-1.407-1.894 1.094a.5.5 0 0 1 -.575-.812l1.265-1.083-1.5.868a.5.5 0 0 1 -.6-.788l2.3-2.286-2.838 1.639a.5.5 0 0 1 -.59-.8l1.931-1.791-2.329 1.344a.5.5 0 0 1 -.572-.814l1.08-.911-1.148.663a.5.5 0 0 1 -.628-.76l1.963-2.273-.064.036a.5.5 0 0 1 -.5-.865l2.629-1.514a.5.5 0 0 1 .628.759l-1.962 2.272 3.472-2a.5.5 0 0 1 .572.814l-1.08.911 1.291-.745a.5.5 0 0 1 .59.8l-1.932 1.791 2.334-1.346a.5.5 0 0 1 .6.788l-2.3 2.284 2.844-1.642a.5.5 0 0 1 .575.813l-1.267 1.084 1.51-.871a.5.5 0 0 1 .581.806l-1.596 1.402 1.9-1.1a.5.5 0 0 1 .577.811l-1.363 1.177 24.826-14.331a.5.5 0 0 1 .511.858l-2.88 1.771.215-.124a.5.5 0 0 1 .509.86l-2.935 1.779a.5.5 0 0 1 .407.905l-6.772 4.138 2.828-1.631a.5.5 0 0 1 .509.859l-3.586 2.185a.5.5 0 0 1 .237.919l-15.9 10.3 7.277-4.2a.5.5 0 0 1 .518.855l-6.867 4.383a.5.5 0 0 1 .19.906l-10.435 7.041a.5.5 0 0 1 -.2.641l-5.193 3a.5.5 0 0 1 -.254.067z" fill="#9a8071"></path><path d="m50.882 24.428a.5.5 0 0 1 -.351-.857l2.669-2.623-3.836 2.214a.5.5 0 0 1 -.665-.154.5.5 0 0 1 .11-.675l3.262-2.514-4.124 2.381a.5.5 0 0 1 -.541-.839l2.848-2.041-3.54 2.044a.5.5 0 0 1 -.548-.835l4.009-2.966-4.894 2.826a.5.5 0 0 1 -.548-.834l4.047-3-4.94 2.851a.5.5 0 0 1 -.532-.845l.626-.427-1.064.613a.5.5 0 0 1 -.538-.842l2.268-1.593-2.874 1.658a.5.5 0 0 1 -.548-.834l4.022-2.989-4.94 2.853a.5.5 0 0 1 -.558-.826l4.974-3.892-6.242 3.6a.5.5 0 0 1 -.535-.844l1.023-.7-1.556.9a.5.5 0 0 1 -.539-.84l2.264-1.6-2.968 1.702a.5.5 0 0 1 -.557-.828l4.592-3.562-5.986 3.456a.5.5 0 0 1 -.535-.843l1.188-.825-1.876 1.083a.5.5 0 0 1 -.543-.837l2.961-2.144-4.027 2.325a.5.5 0 0 1 -.537-.842l1.625-1.137-2.54 1.466a.5.5 0 0 1 -.556-.829l4.457-3.44-6.162 3.557a.5.5 0 0 1 -.563-.823l4.967-3.984-7.194 4.152a.5.5 0 0 1 -.562-.823l4.966-3.964-7.6 4.389a.5.5 0 0 1 -.532-.846l.7-.473-2.198 1.265a.5.5 0 0 1 -.541-.839l3.353-2.405-5.86 3.382a.5.5 0 0 1 -.548-.833l4.735-3.532-9.315 5.378a.5.5 0 0 1 -.535-.844l4.325-3.038-7.87 4.543a.5.5 0 0 1 -.558-.826l5.626-4.419a.485.485 0 0 1 -.464-.249.5.5 0 0 1 .183-.683l5.571-3.217a.5.5 0 0 1 .558.826l-5.336 4.193 11.527-6.656a.5.5 0 0 1 .538.842l-4.324 3.037 6.953-4.013a.5.5 0 0 1 .549.833l-4.737 3.533 7.239-4.179a.5.5 0 0 1 .541.839l-3.354 2.406 5.1-2.943a.5.5 0 0 1 .531.846l-.7.474 1.7-.982a.5.5 0 0 1 .561.823l-4.959 3.964 7.1-4.1a.5.5 0 0 1 .563.823l-4.963 3.985 6.961-4.019a.5.5 0 0 1 .555.828l-4.463 3.443 5.994-3.46a.5.5 0 0 1 .537.842l-1.619 1.133 2.473-1.429a.5.5 0 0 1 .543.838l-2.961 2.146 3.956-2.284a.5.5 0 0 1 .536.844l-1.2.828 1.9-1.093a.5.5 0 0 1 .556.828l-4.59 3.56 5.937-3.427a.5.5 0 0 1 .539.841l-2.263 1.6 3.028-1.748a.5.5 0 0 1 .534.844l-1.021.7 1.608-.928a.5.5 0 0 1 .557.827l-4.975 3.893 6.278-3.615a.5.5 0 0 1 .548.834l-4.018 2.985 4.978-2.873a.5.5 0 0 1 .538.842l-2.263 1.594 2.908-1.679a.5.5 0 0 1 .532.846l-.639.436 1.082-.624a.5.5 0 0 1 .548.834l-4.045 3 4.931-2.849a.5.5 0 0 1 .548.835l-4.008 2.965 4.739-2.736a.5.5 0 0 1 .541.839l-2.845 2.038 1.8-1.038a.5.5 0 0 1 .556.829l-3.265 2.515.738-.425a.5.5 0 0 1 .6.789l-2.83 2.781a.522.522 0 0 1 .454.25.5.5 0 0 1 -.182.683l-3.014 1.735a.49.49 0 0 1 -.25.068z" fill="#c1c7ce"></path><g fill="#262626"><path d="m58.685 12.765c-10.272-7.211-22.463-13.425-35.365-11.675-.009 0-.024.007-.035.009-.048.006-.083.006-.143.017-7.776 1.438-13.756 5.877-18.261 12.31a2.036 2.036 0 0 0 1.326-.185.336.336 0 0 0 .038-.019c7.524-5.391 18.6-3.709 26.426-.135a63.986 63.986 0 0 1 8.912 5.137c-4.925 6.935-11.921 12.668-18.448 18.076-1.548-2.172-3.461-5.792-5.807-6.731-2-.8-5.489 1.139-6.173 3.161-1.2 3.539 4.131 5.419 4.813 8.3.373 1.572.381.068-.622 1.483-1.2 1.7-4.273 3.2-5.976 4.417-1.857 1.321-3.735 2.617-5.643 3.87-.541.354-2.468 1.279-2.806 1.846-1.028 1.714.472 4.982 2.139 6.154 1.1.777 1.364.591 2.661.287 3.161-.739 7.1-4.672 9.7-6.549 11.62-8.379 24.426-17.862 32.947-29.6q1.056.738 2.113 1.458c2.635 1.1 4.012-2.128 5.172-3.844l3.179-4.7c.815-1.204 1.329-2.046-.147-3.087zm-42.713 38.169a78.017 78.017 0 0 1 -8.548 5.947c-2.333 1.264-3.924 1.376-4.8-1.533-.438-1.444-.674-1.748.7-3.154 1.064-1.088 2.822-1.844 4.1-2.72 3.536-2.424 6.976-4.984 10.376-7.601.168-.129.375-.353.2-.567-1.676-2.116-7.643-7.378-4.036-10 3.3-2.4 6.56 4.018 8.252 6.153.3.376.979.1 1.261-.138 6.676-5.543 13.873-11.378 19.053-18.455 1.647 1.123 3.274 2.272 4.895 3.411-8.057 11.358-20.367 20.53-31.453 28.657zm41.519-34.934-2.027 3c-.374.553-3.012 5.171-3.611 4.92-.942-.639-1.913-1.3-2.906-1.97a.308.308 0 0 0 -.216-.146c-1.815-1.223-3.707-2.477-5.661-3.7.078-.229-.179-.33-.513-.322-10.949-6.789-23.75-12.406-35.357-5.849 3.946-5.206 8.953-9.069 15.579-10.318 12.585-1.665 24.537 4.608 34.536 11.629 1.302.918.871 1.727.176 2.756z"></path><path d="m33.546 5.177c-.516-.115-1.711.663-.87.852 7.045 1.582 13.371 4.909 19.368 8.843.44.289 1.761-.34 1.14-.747-6.071-3.983-12.514-7.348-19.638-8.948z"></path><path d="m28.466 4.7c-.3-.007-.6-.009-.905-.006a1.863 1.863 0 0 0 -1.025.275c-.2.143-.22.322.086.32s.6 0 .906 0a1.808 1.808 0 0 0 1.024-.274c.21-.14.215-.306-.086-.315z"></path></g></svg>