<!-- icon666.com - MILLIONS OF FREE VECTOR ICONS --><svg id="Two_tone" viewBox="0 0 64 64" xmlns="http://www.w3.org/2000/svg"><path d="m63 28.27v3.5c0 2.8-.49 5.57-1.44 8.2l-3.55 9.76c-2.17-5.21-6.33-11.78-13.57-11.78 4.73-6.86 11.56-18.11 11.56-25.95l.01-.01 2.96 2.96c2.63 3.95 4.03 8.58 4.03 13.32z" fill="#ff8939"></path><path d="m63 28.27v3.5c0 2.8-.49 5.57-1.44 8.2l-3.55 9.76c-.84-2.02-1.98-4.23-3.48-6.19l2.03-5.57c.95-2.63 1.44-5.4 1.44-8.2v-3.5c0-3.67-.84-7.27-2.44-10.54.29-1.3.44-2.55.44-3.73l.01-.01 2.96 2.96c2.63 3.95 4.03 8.58 4.03 13.32z" fill="#ff6c1a"></path><path d="m58.01 49.73-3.01 8.27s-3-14-15-14c0 0 1.93-2.41 4.44-6.05 7.24 0 11.4 6.57 13.57 11.78z" fill="#bf9f8a"></path><path d="m57.5 6.5c.39.39.58.9.58 1.42 0 .51-.19 1.02-.58 1.41l-2.07 2.08-2.83-2.83 2.07-2.08c.78-.78 2.05-.78 2.83 0z" fill="#bf9f8a"></path><path d="m56.01 11.99-.01.01c0 7.84-6.83 19.09-11.56 25.95 0 0 .56-6.95-5.44-12.95s-14.63-5.63-14.63-5.63c5.18-4.73 14.74-11.37 27.63-11.37l.01-.01.59.59 2.83 2.83z" fill="#ff8939"></path><path d="m56.01 11.99-.01.01c0 7.84-6.83 19.09-11.56 25.95 0 0 .2-2.46-.9-5.71 4.14-6.62 8.46-15.01 8.46-21.24l.01-.01-2.87-2.87c.94-.08 1.89-.12 2.86-.12l.01-.01z" fill="#ff6c1a"></path><path d="m52.01 7.99-.01.01c-12.89 0-22.45 6.64-27.63 11.37 0-7.88-6.2-11.6-10.46-13.25l10.12-3.68c2.63-.95 5.4-1.44 8.2-1.44h3.5c4.74 0 9.37 1.4 13.32 4.03z" fill="#ff8939"></path><path d="m52.01 7.99-.01.01c-12.89 0-22.45 6.64-27.63 11.37 0-2.71-.74-4.93-1.88-6.75 4.879-3.165 11.321-6.034 19.08-6.541.921-.06 1.352-1.164.701-1.819l-1.221-1.23c-1.14-.76-2.33-1.41-3.57-1.96 4.12.29 8.11 1.66 11.57 3.96z" fill="#ff6c1a"></path><path d="m39 25c6 6 5.44 12.95 5.44 12.95-2.51 3.64-4.44 6.05-4.44 6.05s.85-7.61-3.68-13.49c-.4-.52-.84-1.03-1.32-1.51s-.99-.92-1.51-1.32c-5.88-4.53-13.49-3.68-13.49-3.68s1.52-2.02 4.37-4.63c0 0 8.63-.37 14.63 5.63z" fill="#bf9f8a"></path><path d="m36.32 30.51-16.32 16.32-2.83-2.83 16.32-16.32c.52.4 1.03.84 1.51 1.32s.92.99 1.32 1.51z" fill="#ffd4b8"></path><path d="m13.91 6.12c4.26 1.65 10.46 5.37 10.46 13.25-2.85 2.61-4.37 4.63-4.37 4.63 0-12-14-15-14-15l7.9-2.88z" fill="#bf9f8a"></path><path d="m20 46.83-7.46 7.46c-1.96 1.96-5.12 1.96-7.08 0l-1.25-1.25c-1.96-1.96-1.96-5.12 0-7.08l1.96-1.96c.78-.78 2.05-.78 2.83 0 .39.39.58.9.58 1.42 0 .51-.19 1.02-.58 1.41l-1.34 1.33c-.73.74-.73 1.94 0 2.68.37.36.86.55 1.34.55s.97-.19 1.34-.55l6.83-6.84z" fill="#bf9f8a"></path><path d="m25 5s3-3 9.5-1-10.5 3-9.5 1z" fill="#ffb888"></path><path d="m39.969 19.96s-.462-5.324 6.442-7.136-5.358 10.055-6.442 7.136z" fill="#ff8939"></path><path d="m59.801 14.399c-.036-.055-.078-.106-.125-.152l-2.836-2.836 1.368-1.374c.562-.563.872-1.315.872-2.117 0-.808-.31-1.563-.873-2.127-1.17-1.169-3.074-1.167-4.246.002l-1.365 1.372-2.843-2.843c-.047-.046-.098-.088-.152-.125-4.121-2.747-8.915-4.199-13.868-4.199h-3.505c-2.923 0-5.798.506-8.544 1.505l-18.026 6.555c-.419.152-.685.564-.655 1.008s.352.815.786.91c.54.116 13.211 2.985 13.211 14.022 0 .285.121.556.333.745.213.19.495.284.777.249.073-.008 6.482-.659 11.832 2.821l-14.768 14.774-.936-.937c-.391-.391-1.023-.391-1.414 0-.391.39-.391 1.023 0 1.414l.937.937-6.117 6.12c-.35.339-.95.325-1.271.014-.348-.352-.348-.923-.008-1.268l1.344-1.333c.562-.563.872-1.315.872-2.117 0-.808-.31-1.563-.873-2.127-1.17-1.169-3.074-1.169-4.244 0l-1.96 1.96c-2.342 2.342-2.342 6.152 0 8.494l1.25 1.25c1.17 1.172 2.708 1.757 4.246 1.757s3.076-.585 4.247-1.756l22.938-22.937c3.466 5.34 2.83 11.757 2.821 11.831-.03.283.061.565.25.776s.46.333.744.333c11.037 0 13.905 12.671 14.022 13.21.094.436.465.756.909.787.024.002.047.003.069.003.418 0 .795-.261.939-.658l6.555-18.026c.999-2.748 1.506-5.622 1.506-8.544v-3.505c0-4.953-1.452-9.748-4.199-13.868zm-14.558 20.552c-.437-2.733-1.741-6.863-5.536-10.658-4.227-4.227-9.609-5.449-12.76-5.794 5.282-4.323 13.767-9.37 24.663-9.489l3.374 3.374c-.192 6.679-5.366 15.914-9.741 22.567zm10.134-27.743c.393-.391 1.028-.389 1.415-.001.238.238.288.52.288.713 0 .268-.103.518-.289.705l-1.365 1.372-1.416-1.416zm-31.009-3.823c2.527-.919 5.171-1.385 7.861-1.385h3.505c4.523 0 8.904 1.316 12.676 3.809l1.269 1.269c-10.945.656-19.29 5.827-24.459 10.183-.683-4.687-3.676-8.51-8.642-11.042zm-15.281 5.557 4.807-1.748c4.307 1.742 9.236 5.17 9.455 11.73-1.042.976-1.897 1.862-2.554 2.585-1.229-7.427-7.818-11.053-11.708-12.567zm2.746 44.641c-1.562 1.562-4.104 1.562-5.666 0l-1.25-1.25c-1.562-1.562-1.562-4.104 0-5.666l1.96-1.959c.392-.391 1.027-.389 1.415-.001.238.238.288.52.288.713 0 .268-.103.518-.284.701l-1.348 1.337c-1.111 1.126-1.111 2.958.015 4.099 1.088 1.061 2.977 1.07 4.084-.009l6.127-6.129 1.412 1.412zm8.167-8.167-1.413-1.413 14.962-14.968c.251.217.503.431.744.671.241.241.454.493.672.744zm15.707-17.123c-4.422-4.422-10.272-5.262-13.484-5.352.647-.705 1.505-1.588 2.571-2.573 1.682.024 8.588.427 13.5 5.338 4.956 4.956 5.174 10.649 5.158 11.901-.92 1.328-1.75 2.478-2.43 3.398-.207-3.313-1.228-8.625-5.315-12.712zm19.352 26.621c-1.552-3.985-5.328-10.788-13.126-11.775.751-.989 1.807-2.416 3.022-4.159 6.146.302 9.883 5.9 11.978 10.78zm6.941-23.142c0 2.688-.466 5.333-1.385 7.86l-2.715 7.466c-2.299-4.578-5.988-9.181-11.655-10.003 4.266-6.348 9.616-15.528 10.593-22.856l1.351 1.351c2.495 3.772 3.811 8.153 3.811 12.677z" fill="#78411b"></path></svg>